<?xml version="1.0" encoding="utf-8"?>
<!-- Generator: Adobe Illustrator 27.5.0, SVG Export Plug-In . SVG Version: 6.00 Build 0)  -->
<svg version="1.1" id="Layer_1" xmlns="http://www.w3.org/2000/svg" xmlns:xlink="http://www.w3.org/1999/xlink" x="0px" y="0px"
	 viewBox="0 0 4000 4000" style="enable-background:new 0 0 4000 4000;" xml:space="preserve">
<g>
	<g>
		<g>
			<rect style="fill:#95C4FC;" width="4000" height="4000"/>
		</g>
	</g>
	<g>
		<g>
			<path style="fill:#FFFFFF;" d="M2558.943,2118.066v527.56c0,30.28-7.16,58.96-19.84,84.44
				c-31.28,62.96-96.36,106.44-171.04,106.44h-611.2c-64.28,0-121.44-32.2-156-81.28l-0.04-0.04
				c-17.88-25.32-29.76-55.08-33.52-87.28c-0.88-7.32-1.32-14.76-1.32-22.28v-527.56c0-27.96,6.08-54.56,17-78.56
				c30.12-66.08,96.84-112.32,173.88-112.32h611.2c69.6,0,130.84,37.76,164.16,93.84c12.279,20.56,20.76,43.6,24.52,68.12
				C2558.183,2098.586,2558.943,2108.226,2558.943,2118.066z"/>
		</g>
		<g>
			<path style="fill:#371A45;" d="M2368.062,2852.501h-611.217c-55.044,0-106.934-21.575-146.11-60.752
				c-39.177-39.176-60.752-91.065-60.752-146.109v-527.583c0-55.044,21.575-106.934,60.752-146.11
				c39.176-39.176,91.066-60.752,146.11-60.752h611.217c55.044,0,106.933,21.576,146.109,60.752s60.752,91.066,60.752,146.11
				v527.583c0,55.044-21.575,106.933-60.752,146.109S2423.105,2852.501,2368.062,2852.501z M1756.844,1943.195
				c-96.419,0-174.862,78.443-174.862,174.862v527.583c0,96.419,78.443,174.861,174.862,174.861h611.217
				c96.419,0,174.861-78.442,174.861-174.861v-527.583c0-96.419-78.442-174.862-174.861-174.862H1756.844z"/>
		</g>
		<g>
			<path style="fill:#FFFFFF;" d="M1701.039,1971.919c-104.34,479.376-163.887,884.21-163.887,884.21h510.886h510.885
				c0,0-59.547-404.834-163.887-884.21H1701.039z"/>
		</g>
		<g style="opacity:0.35;">
			<path style="fill:#371A45;" d="M2558.943,2856.146h-1021.8c0,0,31.68-215.28,89.28-517.8c0.028,1.516,0.058,3.026,0.09,4.531
				c2.861,136.247,114.288,245.109,250.565,245.109h315.077c144.888,0,259.721-122.482,250.083-267.049
				c-5.223-78.334-14.358-169.813-29.974-268.751C2505.903,2495.666,2558.943,2856.146,2558.943,2856.146z"/>
		</g>
		<g>
			<path style="fill:#371A45;" d="M2577.925,2872.129H1518.626l2.696-18.328c0.596-4.054,60.821-410.863,164.083-885.285
				c1.879-8.635,10.409-14.114,19.037-12.231c8.634,1.879,14.11,10.402,12.231,19.037
				c-90.625,416.365-148.019,780.473-160.922,864.807h984.164c-11.76-67.88-53.166-306.377-85.663-487.301
				c-1.563-8.697,4.222-17.014,12.92-18.576c8.694-1.562,17.014,4.222,18.576,12.92c38.101,212.124,88.438,503.315,88.941,506.232
				L2577.925,2872.129z"/>
		</g>
		<g>
			<path style="fill:#FFFFFF;" d="M1917.479,3208.779v0.928c0,0-5.961-0.129-15.648-0.413
				C1906.302,3209.165,1911.597,3208.985,1917.479,3208.779z"/>
		</g>
		<g>
			<path style="fill:#FFFFFF;" d="M1901.831,3209.294c-9.727,0.283-15.688,0.413-15.688,0.413v-0.928
				C1892.026,3208.985,1897.321,3209.165,1901.831,3209.294z"/>
		</g>
		<g>
			<polygon style="fill:#DBDBDB;" points="3419.343,3100.346 3272.463,3195.906 807.503,3195.906 660.663,3100.346 
				975.063,2656.706 3104.903,2656.706 			"/>
		</g>
		<g style="opacity:0.7;">
			<polygon style="fill:#FFFFFF;" points="3419.343,3100.346 3403.583,3110.626 3104.903,2689.226 975.063,2689.226 
				676.423,3110.626 660.663,3100.346 975.063,2656.706 3104.903,2656.706 			"/>
		</g>
		<g>
			<path style="fill:#371A45;" d="M3272.481,3211.898H807.521c-3.098,0-6.129-0.899-8.726-2.589l-146.864-95.558
				c-3.65-2.375-6.173-6.134-6.99-10.41c-0.816-4.276,0.145-8.701,2.663-12.253l314.424-443.616c3-4.232,7.866-6.748,13.054-6.748
				h2129.839c5.188,0,10.054,2.516,13.054,6.748l314.419,443.616c2.518,3.552,3.479,7.977,2.662,12.253
				c-0.816,4.276-3.34,8.035-6.989,10.41l-146.858,95.558C3278.61,3210.999,3275.579,3211.898,3272.481,3211.898z M812.269,3179.898
				h2455.466l128.925-83.889l-300.009-423.285H983.352L683.338,3096.01L812.269,3179.898z"/>
		</g>
		<g>
			<polygon style="fill:#C1C1C1;" points="3419.343,3100.346 3339.343,3287.426 740.663,3287.426 712.543,3221.666 
				660.663,3100.346 			"/>
		</g>
		<g style="opacity:0.7;">
			<path style="fill:#FFFFFF;" d="M3399.303,3147.186H805.59c-48.709,0-85.761,43.735-77.756,91.782l4.921,29.538l7.908,18.92l0,0
				l-28.12-65.76l-51.88-121.32h2758.68L3399.303,3147.186z"/>
		</g>
		<g style="opacity:0.35;">
			<path style="fill:#371A45;" d="M3419.343,3100.346l-80,187.08H740.663l-28.12-65.76
				c2086.722,40.561,2426.819,27.554,2568.641-121.32H3419.343z"/>
		</g>
		<g>
			<path style="fill:#371A45;" d="M3339.34,3303.426H740.657c-6.405,0-12.193-3.82-14.711-9.709l-80-187.085
				c-2.113-4.943-1.604-10.617,1.357-15.104c2.961-4.487,7.978-7.187,13.354-7.187H3419.34c5.376,0,10.393,2.699,13.354,7.187
				c2.962,4.487,3.472,10.161,1.357,15.104l-80,187.085C3351.533,3299.605,3345.745,3303.426,3339.34,3303.426z M751.217,3271.426
				H3328.78l66.316-155.085H684.901L751.217,3271.426z"/>
		</g>
		<g>
			<path style="fill:#371A45;" d="M1301.256,2942.312c-39.519,0-76.924-7.233-105.324-20.368
				c-32.326-14.95-50.128-36.304-50.128-60.127s17.803-45.177,50.128-60.127c28.399-13.135,65.804-20.368,105.324-20.368
				s76.924,7.233,105.324,20.368c32.326,14.95,50.128,36.304,50.128,60.127s-17.803,45.177-50.128,60.127
				C1378.181,2935.078,1340.776,2942.312,1301.256,2942.312z M1301.256,2813.321c-76.487,0-123.452,28.245-123.452,48.495
				s46.965,48.495,123.452,48.495c76.487,0,123.453-28.245,123.453-48.495S1377.744,2813.321,1301.256,2813.321z"/>
		</g>
		<g>
			
				<line style="fill:none;stroke:#371A45;stroke-width:32;stroke-linecap:round;stroke-miterlimit:10;" x1="2223.862" y1="2726.2" x2="2277.927" y2="2979.992"/>
			
				<line style="fill:none;stroke:#371A45;stroke-width:32;stroke-linecap:round;stroke-miterlimit:10;" x1="2101.383" y1="2726.2" x2="2119.404" y2="2979.992"/>
			
				<line style="fill:none;stroke:#371A45;stroke-width:32;stroke-linecap:round;stroke-miterlimit:10;" x1="1978.903" y1="2726.2" x2="1960.881" y2="2979.992"/>
			
				<line style="fill:none;stroke:#371A45;stroke-width:32;stroke-linecap:round;stroke-miterlimit:10;" x1="1856.423" y1="2726.2" x2="1802.359" y2="2979.992"/>
		</g>
		<g>
			<g style="opacity:0.35;">
				<path style="fill:#371A45;" d="M2051.315,2547.326c4.063,6.228,8.013,12.343,11.811,18.343
					C2059.29,2559.669,2055.34,2553.517,2051.315,2547.326z"/>
			</g>
			<g>
				<path style="fill:#FFFFFF;" d="M1822.185,2550.755c-60.153,24.352-153.246,19.256-216.713,11.577
					c-38.065-4.606-64.785-39.733-59.178-77.663l0,0c5.117-34.613,35.584-59.783,70.534-58.146
					c59.364,2.782,148.406,4.085,204.796-8.424"/>
			</g>
			<g style="opacity:0.35;">
				<path style="fill:#371A45;" d="M1822.2,2550.745c-60.172,24.387-153.266,19.244-216.724,11.611
					c-38.065-4.613-64.784-39.761-59.165-77.667c1.113-7.741,3.552-15.003,6.998-21.63c10.02,19.138,28.999,33.24,52.167,36.05
					c63.353,7.688,156.288,12.777,216.459-11.451L1822.2,2550.745z"/>
			</g>
			<g>
				<path style="fill:#371A45;" d="M1702.589,2584.675c-34.804,0-69.406-2.873-99.039-6.459
					c-22.703-2.747-42.848-14.275-56.725-32.462c-13.902-18.219-19.712-40.744-16.359-63.426
					c6.349-42.955,43.771-73.841,87.111-71.788c87.439,4.098,158.673,1.235,200.583-8.062c8.419-1.868,29.339-1.931,41.679,37.751
					c12.536,40.313,11.146,108.032-31.65,125.356C1792.907,2579.869,1747.583,2584.675,1702.589,2584.675z M1613.585,2442.446
					c-25.756,0-47.649,18.763-51.463,44.562c-2.08,14.068,1.522,28.037,10.142,39.334c8.595,11.265,21.071,18.405,35.13,20.106
					c90.751,10.977,164.9,7.242,208.787-10.524l0,0c13.014-5.268,16.758-26.355,17.764-35.177
					c3.522-30.9-5.878-59.476-11.768-66.399c-57.204,12.021-143.371,11.099-206.097,8.157
					C1615.245,2442.466,1614.413,2442.446,1613.585,2442.446z"/>
			</g>
			<g>
				<path style="fill:#FFFFFF;" d="M2498.997,2562.327c-29.775,3.608-66.119,6.646-102.502,6.304c-2.507,0-4.975-0.038-7.481-0.114
					c-2.621-0.038-5.279-0.114-7.9-0.228c-1.785-0.037-3.532-0.114-5.24-0.189c-2.089-0.114-4.14-0.228-6.191-0.342
					c-2.62-0.152-5.24-0.342-7.823-0.532h-0.189c-2.583-0.189-5.203-0.418-7.786-0.684c-1.709-0.152-3.418-0.342-5.089-0.531
					c-1.443-0.114-2.886-0.304-4.291-0.456c-2.241-0.266-4.482-0.569-6.646-0.874c-2.089-0.303-4.14-0.607-6.153-0.949
					c-0.417-0.038-0.835-0.076-1.215-0.19c-2.393-0.341-4.747-0.76-7.064-1.215c-2.354-0.418-4.671-0.874-6.95-1.367
					c-0.19-0.038-0.379-0.076-0.569-0.114c-1.292-0.304-2.583-0.569-3.836-0.874c-1.406-0.303-2.81-0.645-4.216-1.025h-0.038
					c-4.291-1.063-8.507-2.279-12.608-3.57c-2.203-0.684-4.406-1.443-6.571-2.203c-2.164-0.759-4.292-1.595-6.342-2.43l0.266-63.689
					l0.304-68.968c14.431,3.228,31.028,5.507,48.687,7.102c51.346,4.671,111.921,3.38,156.089,1.33
					c1.063-0.038,2.127-0.076,3.228-0.076c33.572,0,62.36,24.686,67.297,58.22
					C2563.787,2522.603,2537.05,2557.732,2498.997,2562.327z"/>
			</g>
			<g style="opacity:0.35;">
				<path style="fill:#371A45;" d="M2499.001,2562.327c-29.775,3.608-66.119,6.646-102.502,6.304c-2.507,0-4.975-0.038-7.481-0.114
					c-2.621-0.038-5.28-0.114-7.9-0.228c-1.785-0.038-3.532-0.114-5.241-0.19c-2.088-0.114-4.139-0.228-6.19-0.341
					c-2.62-0.152-5.241-0.342-7.824-0.532h-0.189c-2.583-0.19-5.203-0.417-7.785-0.683c-1.709-0.152-3.419-0.342-5.089-0.532
					c-1.443-0.114-2.886-0.304-4.292-0.456c-2.241-0.266-4.482-0.57-6.646-0.873c-2.088-0.304-4.139-0.608-6.152-0.949
					c-0.418-0.038-0.835-0.076-1.215-0.19c-2.392-0.342-4.747-0.759-7.063-1.215c-2.355-0.418-4.671-0.874-6.95-1.367
					c-0.19-0.038-0.38-0.076-0.569-0.114c-1.292-0.304-2.583-0.57-3.836-0.873c-1.406-0.304-2.81-0.646-4.216-1.025h-0.038
					c-4.291-1.063-8.507-2.279-12.608-3.57c-2.203-0.684-4.406-1.444-6.57-2.203c-2.164-0.76-4.292-1.595-6.342-2.431l0.266-63.688
					l0.038-4.595c1.937,0.798,3.987,1.595,6.038,2.316c2.165,0.76,4.368,1.519,6.57,2.203c4.101,1.291,8.317,2.506,12.608,3.57
					h0.038c1.406,0.38,2.81,0.721,4.216,1.026c1.253,0.303,2.544,0.569,3.836,0.873l0.569,0.114c2.279,0.494,4.595,0.949,6.95,1.367
					c2.316,0.456,4.671,0.874,7.063,1.215c0.38,0.114,0.798,0.152,1.215,0.19c2.013,0.342,4.064,0.645,6.152,0.949
					c2.165,0.304,4.406,0.607,6.646,0.873c1.405,0.152,2.848,0.342,4.292,0.456c1.671,0.19,3.38,0.38,5.089,0.532
					c2.582,0.266,5.202,0.494,7.785,0.683h0.189c2.583,0.19,5.204,0.38,7.824,0.532c2.051,0.114,4.102,0.228,6.19,0.342
					c1.709,0.076,3.456,0.152,5.241,0.19c2.62,0.114,5.279,0.19,7.9,0.228c2.506,0.076,4.975,0.114,7.481,0.114
					c36.383,0.342,72.727-2.696,102.502-6.304c22.103-2.659,40.408-15.647,50.739-33.496c4.215,7.292,7.139,15.457,8.43,24.229
					C2563.791,2522.602,2537.055,2557.731,2499.001,2562.327z"/>
			</g>
			<g>
				<path style="fill:#371A45;" d="M2401.885,2584.675c-44.998,0-90.313-4.805-125.601-19.089l0,0
					c-42.796-17.325-44.186-85.044-31.649-125.357c12.34-39.68,33.263-39.616,41.679-37.75
					c41.91,9.296,113.142,12.157,200.583,8.062c43.308-2.042,80.761,28.833,87.111,71.788c3.353,22.682-2.457,45.207-16.358,63.426
					c-13.877,18.187-34.022,29.715-56.726,32.462C2471.295,2581.801,2436.685,2584.675,2401.885,2584.675z M2288.292,2535.924
					c43.886,17.767,118.038,21.505,208.788,10.524c14.059-1.701,26.534-8.842,35.129-20.106
					c8.62-11.297,12.223-25.266,10.143-39.334c-3.937-26.628-27.122-45.764-53.957-44.503c-62.727,2.94-148.895,3.861-206.098-8.157
					c-5.89,6.923-15.29,35.498-11.768,66.398C2271.534,2509.568,2275.278,2530.656,2288.292,2535.924L2288.292,2535.924z"/>
			</g>
			<g>
				<path style="fill:#FFFFFF;" d="M2305.537,2374.259v212.589c0,39.444-32.286,71.729-71.729,71.729h-391.515
					c-39.39,0-71.676-32.286-71.676-71.729v-212.589c0-39.444,32.286-71.676,71.676-71.676h391.515
					c23.22,0,43.949,11.185,57.097,28.415C2300.076,2343.032,2305.537,2358.036,2305.537,2374.259z"/>
			</g>
			<g style="opacity:0.35;">
				<path style="fill:#371A45;" d="M2305.538,2374.262v212.599c0,39.42-32.281,71.701-71.74,71.701h-391.512
					c-39.416,0-71.664-32.249-71.664-71.664v-79.563c41.942,81.547,184.455,113.618,301.702,101.743
					c26.19-2.652,44.92-27.538,38.672-53.109c-1.865-7.632-2.866-15.722-2.866-24.1c0-46.371,30.724-83.969,68.626-83.969
					c36.649,0,66.651,35.167,68.587,79.45c46.979-61.41,49.523-143.594,45.573-196.345
					C2300.069,2343.044,2305.538,2358.045,2305.538,2374.262z"/>
			</g>
			<g>
				<path style="fill:#371A45;" d="M2233.832,2674.564h-391.523c-48.353,0-87.691-39.338-87.691-87.69v-212.617
					c0-48.353,39.338-87.69,87.691-87.69h391.523c48.353,0,87.69,39.338,87.69,87.69v212.617
					C2321.522,2635.227,2282.185,2674.564,2233.832,2674.564z M1842.309,2318.566c-30.708,0-55.691,24.982-55.691,55.69v212.617
					c0,30.708,24.983,55.69,55.691,55.69h391.523c30.708,0,55.69-24.982,55.69-55.69v-212.617c0-30.708-24.982-55.69-55.69-55.69
					H1842.309z"/>
			</g>
			<g>
				<circle style="fill:#22A7F0;" cx="2176.771" cy="2480.565" r="61.826"/>
			</g>
			<g>
				<path style="fill:#FFFFFF;" d="M2238.606,2480.583c0,3.357-0.256,6.64-0.802,9.851c-4.706-29.477-30.244-51.987-61.034-51.987
					c-30.791,0-56.329,22.51-61.035,51.987c-0.548-3.21-0.803-6.494-0.803-9.851c0-34.147,27.69-61.837,61.837-61.837
					C2210.916,2418.746,2238.606,2446.436,2238.606,2480.583z"/>
			</g>
			<g style="opacity:0.35;">
				<path style="fill:#371A45;" d="M2238.579,2480.553c0,34.142-27.674,61.816-61.816,61.816s-61.815-27.674-61.815-61.816
					c0-7.899,1.484-15.427,4.241-22.372c8.906,23.061,31.332,39.39,57.574,39.39c26.242,0,48.668-16.329,57.574-39.39
					C2237.094,2465.125,2238.579,2472.654,2238.579,2480.553z"/>
			</g>
			<g>
				<path style="fill:#371A45;" d="M2176.771,2554.392c-40.708,0-73.826-33.118-73.826-73.826s33.118-73.826,73.826-73.826
					s73.826,33.118,73.826,73.826S2217.479,2554.392,2176.771,2554.392z M2176.771,2430.739c-27.475,0-49.826,22.352-49.826,49.826
					s22.352,49.826,49.826,49.826s49.826-22.352,49.826-49.826S2204.246,2430.739,2176.771,2430.739z"/>
			</g>
			<g>
				<path style="fill:#371A45;" d="M2001.565,2674.564c-8.836,0-16-7.163-16-16V2542.48c0-17.238-8.223-33.72-21.995-44.089
					l-21.556-16.227c-21.759-16.381-34.75-42.42-34.75-69.654v-109.944c0-8.837,7.164-16,16-16s16,7.163,16,16v109.944
					c0,17.238,8.223,33.72,21.995,44.089l21.556,16.227c21.759,16.381,34.75,42.42,34.75,69.654v116.084
					C2017.565,2667.401,2010.402,2674.564,2001.565,2674.564z"/>
			</g>
		</g>
		<g style="opacity:0.35;">
			<path style="fill:#371A45;" d="M1897.503,2829.426c-85.72,24.24-298.88,26.24-327.88-82.04c0,0-163.92,24.84-221.8-90.68h623.28
				c0.84,1.76,1.64,3.56,2.399,5.36C1994.863,2711.546,2002.663,2799.706,1897.503,2829.426z"/>
		</g>
		<g>
			<path style="fill:#FFFFFF;" d="M1736.769,1988.017c-346.337,273.837-435.882,464.956-401.467,595.187
				c40.546,153.546,234.313,124.193,234.313,124.193c29.028,108.262,242.162,106.265,327.898,82.021
				c105.15-29.724,97.348-117.876,75.983-167.34c-51.228-118.712-208.861-193.86-361.849-207.189
				c6.92-77.655,45.934-164.599,45.934-164.599L1736.769,1988.017z"/>
		</g>
		<g style="opacity:0.35;">
			<path style="fill:#371A45;" d="M1335.302,2583.219c40.552,153.524,234.324,124.19,234.324,124.19
				c29.028,108.257,242.138,106.249,327.871,82.022c89.923-25.406,97.213-93.546,84.118-143.703
				c-10.127,30.164-34.748,54.914-84.118,59.803c-266.191,26.322-239.607-65.478-366.46-91.277c0,0-155.183,38.589-195.735-114.98
				c-1.135-4.234-2.096-8.512-2.969-12.877C1326.135,2521.887,1327.619,2554.059,1335.302,2583.219z"/>
		</g>
		<g>
			<path style="fill:#371A45;" d="M1740.076,1992.201c-7.146,8.438-14.677,16.356-22.3,24.141l-11.482,11.595
				c-3.826,3.861-7.719,7.635-11.598,11.422l-11.765,11.195c-3.906,3.742-7.824,7.468-11.783,11.142
				c-7.894,7.377-15.973,14.53-23.833,21.916c-15.922,14.555-31.702,29.219-47.504,43.837l-11.789,11.023
				c-3.928,3.676-7.919,7.292-11.773,11.035l-11.674,11.128c-3.888,3.713-7.826,7.38-11.61,11.189l-11.468,11.323l-5.736,5.662
				c-1.909,1.889-3.748,3.841-5.619,5.766l-11.187,11.582c-1.854,1.94-3.755,3.84-5.57,5.812l-5.439,5.923l-10.854,11.87
				c-1.826,1.965-3.558,4.006-5.318,6.023l-5.261,6.069c-3.484,4.063-7.055,8.063-10.471,12.177l-10.198,12.38l-5.093,6.194
				l-4.928,6.311l-9.856,12.619l-9.496,12.856l-4.743,6.431l-4.548,6.551c-3.016,4.376-6.081,8.725-9.06,13.122l-8.646,13.355
				c-2.958,4.412-5.564,9.007-8.32,13.525l-4.09,6.799c-0.697,1.125-1.343,2.276-1.973,3.433l-1.916,3.46l-3.834,6.92
				c-1.254,2.317-2.618,4.586-3.758,6.952l-7.119,14.072c-2.242,4.74-4.366,9.525-6.561,14.283c-0.53,1.195-1.12,2.372-1.603,3.583
				l-1.472,3.626l-2.946,7.251c-7.64,19.391-13.682,39.282-17.376,59.431l-0.735,3.773c-0.222,1.26-0.357,2.526-0.541,3.789
				l-1.043,7.579c-0.416,2.524-0.562,5.057-0.765,7.587l-0.611,7.591c-0.163,2.53-0.129,5.055-0.207,7.583l-0.082,3.791
				c-0.024,1.263-0.088,2.529,0,3.785l0.303,7.548l0.153,3.773l0.387,3.745l0.757,7.491c0.318,2.486,0.801,4.943,1.187,7.417
				c0.669,4.973,1.968,9.807,3.055,14.687c2.384,9.696,5.635,19.066,9.752,27.946c8.138,17.815,19.933,33.559,34.715,46.183
				c14.791,12.63,32.446,22.124,51.405,28.752c18.975,6.649,39.212,10.53,59.728,12.3c10.263,0.884,20.61,1.243,30.944,1.1
				c5.166-0.069,10.33-0.267,15.459-0.602c2.563-0.168,5.12-0.366,7.648-0.606l3.758-0.39l1.833-0.217l1.613-0.215l14.056-1.87
				l3.795,13.546c1.176,4.194,2.658,8.269,4.469,12.201c1.846,3.917,4.08,7.655,6.58,11.249c2.479,3.609,5.419,6.959,8.53,10.186
				c3.107,3.235,6.566,6.228,10.21,9.057c3.623,2.852,7.522,5.464,11.564,7.919c4.02,2.484,8.275,4.709,12.602,6.832
				c4.33,2.126,8.835,4.009,13.375,5.833c4.593,1.737,9.214,3.44,13.963,4.899c18.932,5.984,38.879,9.834,59.071,12.277
				c20.211,2.42,40.722,3.428,61.233,3.256c20.509-0.167,41.052-1.512,61.294-4.124c10.111-1.323,20.152-2.97,29.96-5.074
				c4.905-1.044,9.746-2.213,14.461-3.53c2.351-0.672,4.64-1.43,6.965-2.134c2.346-0.664,4.572-1.541,6.824-2.369
				c8.989-3.331,17.539-7.406,25.245-12.401c7.71-4.986,14.549-10.891,20.202-17.643c0.691-0.855,1.455-1.659,2.098-2.547
				l1.926-2.667l0.972-1.327l0.866-1.395l1.739-2.786c0.587-0.924,1.036-1.93,1.568-2.887c0.491-0.979,1.078-1.908,1.503-2.924
				c0.855-2.027,1.875-3.974,2.566-6.083l1.152-3.108l0.951-3.197l0.485-1.596c0.146-0.538,0.257-1.089,0.389-1.633l0.773-3.27
				c0.84-4.423,1.562-8.903,1.8-13.497c1.26-18.318-2.249-37.614-8.869-55.502c-0.809-2.248-1.737-4.437-2.644-6.636l-3.092-6.666
				l-1.545-3.337c-0.531-1.106-1.145-2.174-1.712-3.263l-3.46-6.511c-4.958-8.507-10.18-16.904-16.222-24.791
				c-5.834-8.022-12.427-15.531-19.163-22.903l-5.249-5.372l-2.621-2.689l-2.733-2.59l-5.477-5.17
				c-1.828-1.722-3.777-3.325-5.659-4.996c-1.915-1.636-3.753-3.353-5.729-4.925l-5.89-4.758l-2.951-2.373l-3.036-2.276l-6.07-4.556
				c-2.033-1.507-4.147-2.914-6.217-4.378c-2.091-1.435-4.131-2.938-6.264-4.318l-6.393-4.149l-3.195-2.076l-3.262-1.982
				c-34.729-21.256-72.607-37.805-111.858-49.944c-19.627-6.087-39.603-11.115-59.786-15.087
				c-5.033-1.062-10.111-1.885-15.176-2.779l-3.8-0.664l-3.813-0.572l-7.632-1.117c-2.541-0.399-5.1-0.656-7.651-0.957l-7.663-0.847
				c-5.116-0.486-10.237-0.89-15.356-1.292l-16.601-1.305l1.626-16.563c0.733-7.466,1.234-15.024,2.386-22.378l0.763-5.551
				l0.396-2.774l0.486-2.742l2.026-10.955c3.054-14.493,6.808-28.777,11.552-42.663c4.671-13.908,10.125-27.512,16.657-40.624
				c3.258-6.559,6.772-12.998,10.583-19.291c0.94-1.579,1.938-3.132,2.908-4.693c1-1.552,2.029-3.089,3.058-4.623
				c2.076-3.074,4.263-6.045,6.656-9.027c1.904-2.373,5.372-2.753,7.745-0.848c1.56,1.251,2.258,3.178,2.013,5.026l-0.026,0.189
				c-0.971,7.176-2.373,14.274-3.749,21.288c-1.428,7.006-2.905,13.962-4.498,20.85c-3.121,13.797-6.511,27.391-9.888,40.914
				c-3.341,13.539-6.405,27.037-9.346,40.493c-2.875,13.463-5.268,26.901-6.915,40.334l-14.975-17.868
				c5.395,0.677,10.8,1.22,16.186,1.922l8.067,1.113c2.69,0.359,5.383,0.701,8.061,1.139c10.734,1.601,21.45,3.329,32.089,5.466
				c21.292,4.19,42.367,9.493,63.115,15.928c41.488,12.844,81.715,30.353,119.12,53.242c18.704,11.423,36.592,24.38,53.273,38.928
				c2.071,1.836,4.2,3.599,6.222,5.498l6.053,5.709l3.017,2.866l2.916,2.982l5.826,5.97c7.526,8.214,14.888,16.628,21.504,25.698
				c6.806,8.91,12.801,18.48,18.46,28.236l3.984,7.485c0.652,1.254,1.348,2.484,1.963,3.759l1.794,3.851l3.567,7.719
				c1.114,2.683,2.239,5.364,3.225,8.088c1.055,2.703,1.927,5.463,2.857,8.204c0.833,2.772,1.721,5.528,2.429,8.339
				c1.536,5.585,2.72,11.279,3.693,17.024c1.865,11.506,2.684,23.317,1.838,35.262c-0.33,5.964-1.245,11.951-2.404,17.899
				l-1.043,4.446c-0.181,0.74-0.341,1.483-0.54,2.219l-0.654,2.2l-1.325,4.396l-1.586,4.33c-0.994,2.908-2.367,5.688-3.604,8.513
				c-0.615,1.415-1.407,2.751-2.108,4.128c-0.742,1.356-1.41,2.754-2.226,4.069l-2.449,3.944l-1.239,1.962l-1.354,1.882
				l-2.725,3.752c-0.916,1.244-1.951,2.386-2.927,3.579c-7.915,9.46-17.297,17.464-27.327,23.949
				c-10.04,6.503-20.701,11.538-31.515,15.549c-2.706,0.997-5.408,2.038-8.147,2.828c-2.729,0.835-5.463,1.726-8.193,2.503
				c-5.464,1.525-10.902,2.834-16.333,3.992c-10.861,2.328-21.696,4.098-32.541,5.518c-21.686,2.796-43.403,4.21-65.164,4.391
				c-21.756,0.18-43.556-0.88-65.321-3.484c-21.753-2.64-43.508-6.786-64.905-13.54c-5.354-1.65-10.66-3.591-15.948-5.599
				c-5.267-2.109-10.517-4.311-15.679-6.839c-5.158-2.527-10.278-5.211-15.256-8.276c-4.988-3.029-9.885-6.311-14.574-9.989
				c-4.699-3.648-9.252-7.593-13.479-11.971c-4.225-4.366-8.264-9.006-11.791-14.101c-3.544-5.07-6.738-10.438-9.397-16.087
				c-2.625-5.662-4.764-11.542-6.42-17.533l17.851,11.676l-2.422,0.327l-2.211,0.262l-4.344,0.45
				c-2.877,0.273-5.734,0.494-8.589,0.681c-5.708,0.372-11.398,0.59-17.091,0.666c-11.382,0.157-22.767-0.236-34.144-1.216
				c-22.732-1.97-45.509-6.267-67.558-13.982c-11.013-3.855-21.823-8.588-32.19-14.331c-5.203-2.831-10.234-6.03-15.17-9.374
				c-4.928-3.366-9.651-7.061-14.246-10.914c-18.289-15.566-33.113-35.425-42.998-57.128c-5.015-10.826-8.893-22.08-11.705-33.466
				c-1.297-5.712-2.774-11.393-3.584-17.193c-0.456-2.889-1.002-5.769-1.373-8.667l-0.892-8.714l-0.437-4.358l-0.19-4.364
				l-0.343-8.729c-0.091-1.457-0.028-2.906-0.004-4.356l0.088-4.352c0.086-2.898,0.066-5.81,0.248-8.697l0.687-8.646
				c0.234-2.881,0.418-5.772,0.872-8.613l1.176-8.558c0.208-1.424,0.37-2.858,0.618-4.272l0.814-4.223
				c4.141-22.586,10.817-44.436,19.09-65.44l3.186-7.84l1.596-3.919c0.525-1.31,1.149-2.566,1.72-3.852
				c2.347-5.106,4.636-10.247,7.039-15.32l7.586-14.999c1.224-2.526,2.654-4.919,3.984-7.377l4.061-7.329l2.031-3.664
				c0.67-1.226,1.353-2.443,2.085-3.627l4.304-7.161c2.896-4.754,5.662-9.605,8.748-14.22l9.061-13.99
				c3.109-4.594,6.3-9.124,9.447-13.689l4.744-6.828l4.923-6.68l9.862-13.347l10.195-13.057l5.1-6.527l5.25-6.389l10.517-12.765
				c3.521-4.24,7.183-8.346,10.769-12.525l5.4-6.246c1.803-2.08,3.578-4.186,5.44-6.206l11.033-12.26
				c14.695-16.36,29.784-32.318,45.063-48.076c3.779-3.985,7.699-7.815,11.574-11.696l11.661-11.605
				c3.861-3.899,7.87-7.63,11.841-11.407l11.958-11.279c16.085-14.876,32.527-29.35,49.391-43.291
				c4.225-3.475,8.381-7.034,12.659-10.438c4.277-3.407,8.563-6.802,12.889-10.15c4.314-3.36,8.67-6.668,13.036-9.961
				c4.389-3.264,8.887-6.39,13.335-9.574c17.896-12.613,36.341-24.488,55.859-34.887c2.642-1.407,5.924-0.407,7.332,2.235
				c1.072,2.013,0.746,4.398-0.638,6.042L1740.076,1992.201z"/>
		</g>
		<g>
			<path style="fill:#371A45;" d="M1553.795,2709.875c-0.111-0.326-0.264-0.853-0.387-1.306l-0.383-1.433
				c-0.264-0.966-0.49-1.943-0.743-2.921c-0.476-1.961-0.93-3.936-1.38-5.915c-0.9-3.957-1.703-7.941-2.536-11.915
				c-1.608-7.963-3.165-15.918-4.823-23.824c-1.649-7.921-3.629-15.633-5.397-23.557c-0.945-3.937-1.881-7.907-2.981-11.975
				c-1.089-4.1-2.349-8.211-4.109-12.789c4.871,0.818,9.324,3.142,13.344,5.87c3.998,2.779,7.591,6.07,10.748,9.621
				c3.132,3.561,5.945,7.342,8.4,11.279c2.407,3.95,4.648,7.971,6.666,12.072c4.033,8.194,7.343,16.627,9.936,25.214
				c1.273,4.301,2.418,8.631,3.311,13.022c0.451,2.194,0.844,4.404,1.186,6.633c0.153,1.117,0.32,2.238,0.44,3.372
				c0.064,0.572,0.126,1.138,0.176,1.72l0.145,1.851c0.689,8.817-5.898,16.523-14.716,17.213
				c-7.446,0.583-14.101-4.026-16.404-10.784L1553.795,2709.875z"/>
		</g>
		<g>
			<path style="fill:#371A45;" d="M1609.65,2430.764c-0.28-0.004-0.96-0.021-1.509-0.055c-0.551-0.038-1.187-0.054-1.79-0.079
				l-3.711-0.121c-2.486-0.101-5.055-0.108-7.59-0.18c-5.111-0.019-10.258-0.077-15.427,0.083c-2.585,0.066-5.175,0.063-7.765,0.227
				c-2.591,0.127-5.193,0.163-7.787,0.36l-7.806,0.491l-7.812,0.683c-10.416,1.015-20.895,2.3-31.324,4.222
				c-5.24,0.897-10.448,1.92-16.006,2.204c-5.571,0.265-11.169,0.624-17.62-0.58l-0.051-0.01c-0.852-0.159-1.413-0.978-1.254-1.829
				c0.042-0.224,0.134-0.434,0.256-0.61c1.859-2.663,3.971-4.863,6.156-6.951c2.201-2.051,4.467-4.036,6.908-5.599
				c2.414-1.638,4.91-3.116,7.454-4.485c2.526-1.429,5.21-2.397,7.857-3.505c10.577-4.497,21.595-7.917,32.783-10.782l8.445-1.965
				l8.533-1.587c5.717-0.922,11.468-1.713,17.266-2.2c5.792-0.508,11.63-0.757,17.498-0.749c1.469-0.004,2.949,0.055,4.423,0.093
				l2.214,0.068l2.236,0.138c1.483,0.077,2.979,0.203,4.51,0.366c0.765,0.078,1.5,0.142,2.314,0.244
				c0.817,0.097,1.506,0.194,2.589,0.355c8.727,1.291,14.754,9.412,13.462,18.138c-1.187,8.02-8.142,13.759-16.033,13.634
				L1609.65,2430.764z"/>
		</g>
		<g style="opacity:0.35;">
			<path style="fill:#371A45;" d="M1613.06,2402.324c7.246-56.093,28.985-114.325,39.2-139.337
				c-60.545,44.176-148.766,116.813-153.306,167.58C1533.919,2415.551,1572.857,2406.34,1613.06,2402.324z"/>
		</g>
		<g>
			<path style="fill:#371A45;" d="M1495.808,2719.572c-1.625,0-3.276-0.332-4.857-1.032
				c-39.385-17.459-69.023-82.704-50.447-161.667c8.513-36.187,32.433-74.578,65.628-105.33
				c31.972-29.618,68.317-48.027,97.223-49.244c6.617-0.299,12.216,4.863,12.494,11.484c0.279,6.622-4.863,12.216-11.485,12.494
				c-23.033,0.97-54.423,17.397-81.922,42.872c-29.78,27.587-51.13,61.564-58.576,93.22c-9.62,40.892-3.826,71.601,2.729,90.161
				c7.592,21.499,20.333,37.974,34.083,44.068c6.059,2.687,8.793,9.775,6.107,15.834
				C1504.8,2716.91,1500.41,2719.572,1495.808,2719.572z"/>
		</g>
		<g style="opacity:0.35;">
			<path style="fill:#371A45;" d="M1660.635,2915.514c0,91.795-160.899,166.209-359.379,166.209s-359.379-74.414-359.379-166.209
				c0-31,26.063-113.258,58.013-138.096c62.659-48.713,169.914-28.113,301.366-28.113c159.116,0,237.476-22.363,301.336,28.113
				C1633.796,2802.081,1660.635,2897.309,1660.635,2915.514z"/>
		</g>
		<g>
			<path style="fill:#969696;" d="M1660.635,2871.514c0,91.795-160.899,166.209-359.379,166.209s-359.379-74.414-359.379-166.209
				c0-31,26.063-113.258,58.013-138.096c62.659-48.713,169.914-28.113,301.366-28.113c159.116,0,237.476-22.363,301.336,28.113
				C1633.796,2758.081,1660.635,2853.309,1660.635,2871.514z"/>
		</g>
		<g style="opacity:0.35;">
			<path style="fill:#371A45;" d="M1660.623,2871.506c0,91.8-160.88,166.2-359.36,166.2s-359.4-74.4-359.4-166.2
				c0-5.76,0.92-13.32,2.56-21.92c21.24,82.44,172.92,146.36,356.84,146.36c182.24,0,332.76-62.76,356.16-144.08
				C1659.503,2860.786,1660.623,2867.786,1660.623,2871.506z"/>
		</g>
		<g>
			<ellipse style="fill:#545454;" cx="1301.256" cy="2942.274" rx="19.282" ry="58.528"/>
			<ellipse style="fill:#545454;" cx="1392.215" cy="2937.892" rx="19.282" ry="58.528"/>
			<ellipse style="fill:#545454;" cx="1486.746" cy="2918.92" rx="19.282" ry="58.528"/>
			<ellipse style="fill:#545454;" cx="1566.847" cy="2886.866" rx="19.282" ry="58.528"/>
			<ellipse style="fill:#545454;" cx="1614.514" cy="2843.234" rx="19.282" ry="58.528"/>
		</g>
		<g>
			<ellipse style="fill:#545454;" cx="1301.256" cy="2942.274" rx="19.282" ry="58.528"/>
			<ellipse style="fill:#545454;" cx="1210.298" cy="2937.892" rx="19.282" ry="58.528"/>
			<ellipse style="fill:#545454;" cx="1115.767" cy="2918.92" rx="19.282" ry="58.528"/>
			<ellipse style="fill:#545454;" cx="1035.666" cy="2886.866" rx="19.282" ry="58.528"/>
			<ellipse style="fill:#545454;" cx="987.999" cy="2843.234" rx="19.282" ry="58.528"/>
		</g>
		<g>
			<path style="fill:#371A45;" d="M1301.256,3053.723c-98.264,0-190.897-17.813-260.835-50.159
				c-73.865-34.161-114.543-81.058-114.543-132.05c0-34.514,27.108-121.896,64.192-150.728
				c24.291-18.885,55.313-29.596,97.627-33.707c36.54-3.548,78.688-1.878,123.311-0.106c28.887,1.146,58.758,2.332,90.248,2.332
				c41.554,0,77.608-1.54,109.418-2.898c90.404-3.863,150.13-6.413,201.84,34.459c36.842,29.12,64.121,129.753,64.121,150.648
				c0,50.992-40.679,97.889-114.543,132.05C1492.154,3035.909,1399.521,3053.723,1301.256,3053.723z M1137.315,2716.963
				c-53.85,0-97.324,5.546-127.605,29.087c-11.607,9.024-25.013,31.383-35.859,59.81c-10.976,28.765-15.974,54.197-15.974,65.654
				c0,18.315,8.091,36.449,24.049,53.898c16.66,18.217,40.86,34.738,71.927,49.107c65.817,30.439,153.679,47.203,247.402,47.203
				s181.586-16.764,247.403-47.203c31.067-14.369,55.267-30.891,71.927-49.107c15.958-17.449,24.049-35.583,24.049-53.898
				c0-14.674-25.946-104.979-51.964-125.543c-42.381-33.499-94.418-31.276-180.632-27.594c-32.129,1.372-68.546,2.928-110.783,2.928
				c-32.125,0-62.318-1.198-91.517-2.357C1183.938,2717.924,1159.728,2716.963,1137.315,2716.963z"/>
		</g>
		<g>
			<ellipse style="fill:#371A45;" cx="1301.256" cy="2798.492" rx="332.539" ry="153.796"/>
		</g>
		<g>
			<path style="fill:#371A45;" d="M1301.256,2968.288c-91.095,0-176.988-16.522-241.857-46.524
				c-68.795-31.816-106.682-75.596-106.682-123.272c0-47.676,37.887-91.455,106.682-123.271
				c64.869-30.002,150.762-46.524,241.857-46.524s176.988,16.522,241.857,46.523c68.795,31.817,106.682,75.597,106.682,123.272
				c0,47.677-37.887,91.456-106.682,123.272C1478.245,2951.766,1392.352,2968.288,1301.256,2968.288z M1301.256,2660.695
				c-86.554,0-167.676,15.473-228.424,43.568c-55.998,25.898-88.115,60.243-88.115,94.228s32.117,68.33,88.115,94.229
				c60.748,28.096,141.871,43.568,228.424,43.568c86.554,0,167.677-15.473,228.425-43.568
				c55.998-25.898,88.115-60.244,88.115-94.229s-32.117-68.329-88.115-94.228
				C1468.933,2676.168,1387.811,2660.695,1301.256,2660.695z"/>
		</g>
		<g>
			<ellipse style="fill:#FCD259;" cx="1301.256" cy="2784.364" rx="127.29" ry="58.87"/>
		</g>
		<g>
			<ellipse style="fill:#371A45;" cx="1301.256" cy="2779.615" rx="29.282" ry="13.543"/>
		</g>
		<g>
			<path style="fill:#371A45;" d="M1301.256,2859.234c-81.688,0-143.29-32.188-143.29-74.87s61.601-74.87,143.29-74.87
				s143.29,32.188,143.29,74.87S1382.945,2859.234,1301.256,2859.234z M1301.256,2741.494c-67.936,0-111.29,25.391-111.29,42.87
				s43.354,42.87,111.29,42.87s111.29-25.391,111.29-42.87S1369.192,2741.494,1301.256,2741.494z"/>
		</g>
		<g style="opacity:0.35;">
			<path style="fill:#371A45;" d="M3139.362,2915.514c0,91.795-160.899,166.209-359.379,166.209
				c-198.479,0-359.379-74.414-359.379-166.209c0-31,26.063-113.258,58.013-138.096c62.659-48.713,169.914-28.113,301.366-28.113
				c159.116,0,237.476-22.363,301.336,28.113C3112.522,2802.081,3139.362,2897.309,3139.362,2915.514z"/>
		</g>
		<g>
			<path style="fill:#969696;" d="M3139.362,2871.514c0,91.795-160.899,166.209-359.379,166.209
				c-198.479,0-359.379-74.414-359.379-166.209c0-31,26.063-113.258,58.013-138.096c62.659-48.713,169.914-28.113,301.366-28.113
				c159.116,0,237.476-22.363,301.336,28.113C3112.522,2758.081,3139.362,2853.309,3139.362,2871.514z"/>
		</g>
		<g style="opacity:0.35;">
			<path style="fill:#371A45;" d="M3139.343,2871.506c0,91.8-160.88,166.2-359.36,166.2c-198.48,0-359.36-74.4-359.36-166.2
				c0-5.76,0.88-13.28,2.561-21.88c21.24,82.44,172.88,146.32,356.8,146.32c182.24,0,332.8-62.72,356.2-144.08
				C3138.223,2860.786,3139.343,2867.786,3139.343,2871.506z"/>
		</g>
		<g>
			<ellipse style="fill:#371A45;" cx="2779.983" cy="2779.615" rx="29.282" ry="13.543"/>
		</g>
		<g>
			<path style="fill:#22A7F0;" d="M1948.758,2862.503h37.698c9.006,0,16.206,7.489,15.852,16.488l-2.112,53.678
				c-0.335,8.513-7.333,15.241-15.852,15.241h-41.581c-9.459,0-16.817-8.225-15.767-17.625l5.995-53.678
				C1933.888,2868.576,1940.677,2862.503,1948.758,2862.503z"/>
		</g>
		<g style="opacity:0.35;">
			<path style="fill:#371A45;" d="M2002.303,2878.986l-2.12,53.68c-0.32,8.52-7.32,15.24-15.84,15.24h-41.56
				c-9.48,0-16.84-8.24-15.8-17.64l2.4-21.56c2.84,4.4,7.72,7.32,13.4,7.32h41.56c8.52,0,15.52-6.72,15.84-15.24l1.12-27.96
				C2002.023,2874.706,2002.383,2876.826,2002.303,2878.986z"/>
		</g>
		<g>
			<path style="fill:#371A45;" d="M1984.344,2963.91h-41.581c-9.056,0-17.712-3.871-23.749-10.62
				c-6.038-6.749-8.924-15.781-7.919-24.78l5.995-53.678c1.804-16.15,15.418-28.329,31.668-28.329h37.698
				c8.622,0,16.994,3.564,22.97,9.779c5.976,6.216,9.209,14.722,8.87,23.337l-2.111,53.679
				C2015.509,2950.464,2001.523,2963.91,1984.344,2963.91z M1942.915,2931.91h41.3l2.101-53.407h-37.437L1942.915,2931.91z
				 M1986.465,2878.503h0.01H1986.465z"/>
		</g>
		<g>
			<path style="fill:#22A7F0;" d="M2121.241,2760.289h-37.698c-9.007,0-16.207,7.489-15.853,16.488l2.112,53.678
				c0.335,8.513,7.333,15.241,15.853,15.241h41.581c9.459,0,16.817-8.225,15.767-17.625l-5.995-53.678
				C2136.111,2766.363,2129.322,2760.289,2121.241,2760.289z"/>
		</g>
		<g style="opacity:0.35;">
			<path style="fill:#371A45;" d="M2127.223,2845.706h-41.561c-8.52,0-15.52-6.72-15.88-15.24l-0.92-23.64
				c2.88,3.12,7,5.04,11.56,5.04h41.6c9.44,0,16.8-8.2,15.76-17.6l-2.92-26.2c1.12,1.88,1.88,4.04,2.16,6.32l5.96,53.68
				C2144.063,2837.466,2136.703,2845.706,2127.223,2845.706z"/>
		</g>
		<g>
			<path style="fill:#371A45;" d="M2127.235,2861.696h-41.581c-17.179,0-31.164-13.446-31.839-30.612l-2.112-53.678
				c-0.339-8.616,2.895-17.122,8.87-23.338c5.977-6.215,14.349-9.779,22.97-9.779h37.698c16.251,0,29.865,12.179,31.668,28.329
				l5.994,53.678c1.005,8.999-1.882,18.031-7.919,24.78S2136.291,2861.696,2127.235,2861.696z M2085.785,2829.696h41.299
				l-5.964-53.407h-37.437L2085.785,2829.696z M2121.244,2776.289h0.01H2121.244z"/>
		</g>
		<g>
			<path style="fill:#22A7F0;" d="M2268.177,2835.417l-37.52,3.663c-8.964,0.875-15.402,9.028-14.175,17.951l7.317,53.219
				c1.161,8.44,8.78,14.457,17.258,13.629l41.384-4.04c9.414-0.919,15.938-9.82,13.979-19.074l-11.182-52.842
				C2283.567,2840.017,2276.219,2834.632,2268.177,2835.417z"/>
		</g>
		<g style="opacity:0.35;">
			<path style="fill:#371A45;" d="M2282.423,2919.826l-41.36,4.04c-8.48,0.84-16.12-5.16-17.28-13.6l-4.48-32.44
				c2.72,6.12,9.12,10.08,16.08,9.4l41.4-4.04c6.56-0.64,11.72-5.12,13.6-10.96l6.04,28.52
				C2298.383,2910.026,2291.863,2918.906,2282.423,2919.826z"/>
		</g>
		<g>
			<path style="fill:#371A45;" d="M2239.449,2939.957c-15.776,0-29.306-11.567-31.501-27.527l-7.317-53.22
				c-1.175-8.543,1.217-17.322,6.561-24.089s13.33-11.128,21.911-11.965l37.52-3.663l1.555,15.924l-1.555-15.924
				c16.154-1.583,30.906,9.219,34.271,25.116l11.182,52.842c1.875,8.857-0.119,18.127-5.471,25.431
				c-5.354,7.305-13.593,12-22.606,12.88l-41.385,4.04C2241.55,2939.906,2240.495,2939.957,2239.449,2939.957z M2232.352,2854.99
				l7.28,52.951l41.104-4.013l-11.125-52.575L2232.352,2854.99z"/>
		</g>
		<g>
			<circle style="fill:#371A45;" cx="3052.231" cy="3193.883" r="28.614"/>
		</g>
		<g>
			<circle style="fill:#371A45;" cx="2879.249" cy="3193.883" r="28.614"/>
		</g>
		<g>
			<path style="fill:#FFFFFF;" d="M1312.4,2686.886c24.113-4.909,48.69-6.271,73.215-5.339c24.525,0.997,49.05,4.449,73.058,10.68
				c23.945,6.299,47.585,15.373,68.904,29.327c10.518,7.128,20.59,15.458,28.327,26.024c7.678,10.33,12.765,23.949,10.079,36.222
				c-2.768-12.145-10.118-21.108-18.755-28.231c-8.667-7.152-18.673-12.7-28.971-17.605c-20.792-9.628-43.069-16.549-65.67-22.528
				c-22.649-5.904-45.723-10.793-69.09-15.202C1360.124,2695.702,1336.487,2691.92,1312.4,2686.886z"/>
		</g>
		<g>
			<path style="fill:#FFFFFF;" d="M1312.4,2880.712c-24.113,4.909-48.689,6.271-73.214,5.339
				c-24.525-0.997-49.05-4.449-73.058-10.68c-23.945-6.299-47.585-15.373-68.904-29.327c-10.518-7.128-20.59-15.459-28.327-26.024
				c-7.679-10.33-12.765-23.949-10.079-36.221c2.768,12.145,10.117,21.107,18.755,28.231c8.667,7.152,18.673,12.7,28.971,17.605
				c20.792,9.628,43.07,16.549,65.67,22.528c22.649,5.904,45.724,10.793,69.09,15.202
				C1264.676,2871.896,1288.313,2875.677,1312.4,2880.712z"/>
		</g>
		<g>
			<g>
				<ellipse style="fill:#545454;" cx="2779.983" cy="2942.274" rx="19.282" ry="58.528"/>
				<ellipse style="fill:#545454;" cx="2870.941" cy="2937.892" rx="19.282" ry="58.528"/>
				<ellipse style="fill:#545454;" cx="2965.472" cy="2918.92" rx="19.282" ry="58.528"/>
				<ellipse style="fill:#545454;" cx="3045.573" cy="2886.866" rx="19.282" ry="58.528"/>
				<ellipse style="fill:#545454;" cx="3093.24" cy="2843.234" rx="19.282" ry="58.528"/>
			</g>
			<g>
				<ellipse style="fill:#545454;" cx="2779.983" cy="2942.274" rx="19.282" ry="58.528"/>
				<ellipse style="fill:#545454;" cx="2689.024" cy="2937.892" rx="19.282" ry="58.528"/>
				<ellipse style="fill:#545454;" cx="2594.493" cy="2918.92" rx="19.282" ry="58.528"/>
				<ellipse style="fill:#545454;" cx="2514.393" cy="2886.866" rx="19.282" ry="58.528"/>
				<ellipse style="fill:#545454;" cx="2466.725" cy="2843.234" rx="19.282" ry="58.528"/>
			</g>
		</g>
		<g>
			<path style="fill:#371A45;" d="M2779.982,3053.723c-98.264,0-190.896-17.813-260.835-50.159
				c-73.864-34.161-114.543-81.058-114.543-132.05c0-34.514,27.107-121.897,64.192-150.728
				c24.291-18.885,55.313-29.596,97.627-33.707c36.542-3.548,78.688-1.878,123.311-0.106c28.888,1.146,58.759,2.332,90.248,2.332
				c41.554,0,77.608-1.54,109.418-2.898c90.403-3.864,150.131-6.412,201.841,34.459c36.841,29.12,64.12,129.753,64.12,150.648
				c0,50.992-40.679,97.889-114.543,132.05C2970.88,3035.909,2878.246,3053.723,2779.982,3053.723z M2616.041,2716.963
				c-53.849,0-97.323,5.546-127.604,29.087c-11.607,9.024-25.013,31.383-35.859,59.81c-10.975,28.765-15.974,54.197-15.974,65.654
				c0,18.315,8.091,36.449,24.049,53.898c16.66,18.217,40.859,34.738,71.927,49.107c65.817,30.439,153.68,47.203,247.402,47.203
				c93.724,0,181.586-16.764,247.403-47.203c31.067-14.369,55.267-30.891,71.927-49.107c15.958-17.449,24.049-35.583,24.049-53.898
				c0-14.674-25.946-104.979-51.964-125.543c-42.38-33.499-94.416-31.276-180.632-27.594c-32.13,1.372-68.546,2.928-110.783,2.928
				c-32.125,0-62.317-1.198-91.517-2.357C2662.663,2717.924,2638.453,2716.963,2616.041,2716.963z"/>
		</g>
		<g>
			<ellipse style="fill:#371A45;" cx="2779.983" cy="2798.492" rx="332.539" ry="153.796"/>
		</g>
		<g>
			<path style="fill:#371A45;" d="M2779.982,2968.288c-91.095,0-176.988-16.522-241.857-46.524
				c-68.795-31.816-106.682-75.596-106.682-123.272c0-47.676,37.887-91.455,106.682-123.271
				c64.87-30.002,150.763-46.524,241.857-46.524s176.988,16.522,241.857,46.523c68.796,31.817,106.683,75.597,106.683,123.272
				c0,47.677-37.887,91.456-106.683,123.272C2956.971,2951.766,2871.077,2968.288,2779.982,2968.288z M2779.982,2660.695
				c-86.554,0-167.677,15.473-228.424,43.568c-55.999,25.898-88.115,60.243-88.115,94.228s32.116,68.33,88.115,94.229
				c60.747,28.096,141.87,43.568,228.424,43.568c86.555,0,167.678-15.473,228.425-43.568c55.999-25.898,88.115-60.244,88.115-94.229
				s-32.116-68.329-88.115-94.228C2947.66,2676.168,2866.537,2660.695,2779.982,2660.695z"/>
		</g>
		<g>
			<ellipse style="fill:#FCD259;" cx="2779.983" cy="2784.364" rx="127.29" ry="58.87"/>
		</g>
		<g>
			<path style="fill:#371A45;" d="M2779.982,2859.234c-81.688,0-143.289-32.188-143.289-74.87s61.601-74.87,143.289-74.87
				s143.29,32.188,143.29,74.87S2861.671,2859.234,2779.982,2859.234z M2779.982,2741.494c-67.936,0-111.289,25.391-111.289,42.87
				s43.354,42.87,111.289,42.87s111.29-25.391,111.29-42.87S2847.918,2741.494,2779.982,2741.494z"/>
		</g>
		<g>
			<path style="fill:#FFFFFF;" d="M2813.252,2686.886c24.113-4.909,48.69-6.271,73.215-5.339c24.525,0.997,49.05,4.449,73.058,10.68
				c23.945,6.299,47.585,15.373,68.904,29.327c10.518,7.128,20.59,15.458,28.327,26.024c7.678,10.33,12.765,23.949,10.079,36.222
				c-2.768-12.145-10.118-21.108-18.755-28.231c-8.667-7.152-18.673-12.7-28.971-17.605c-20.792-9.628-43.069-16.549-65.67-22.528
				c-22.649-5.904-45.723-10.793-69.09-15.202C2860.976,2695.702,2837.339,2691.92,2813.252,2686.886z"/>
		</g>
		<g>
			<path style="fill:#FFFFFF;" d="M2813.252,2880.712c-24.113,4.909-48.689,6.271-73.214,5.339
				c-24.525-0.997-49.05-4.449-73.058-10.68c-23.945-6.299-47.585-15.373-68.904-29.327c-10.518-7.128-20.59-15.459-28.327-26.024
				c-7.679-10.33-12.765-23.949-10.079-36.221c2.768,12.145,10.117,21.107,18.755,28.231c8.667,7.152,18.673,12.7,28.971,17.605
				c20.792,9.628,43.07,16.549,65.67,22.528c22.649,5.904,45.724,10.793,69.09,15.202
				C2765.528,2871.896,2789.165,2875.677,2813.252,2880.712z"/>
		</g>
		<g>
			<path style="fill:#FFFFFF;" d="M3013.943,2788.666c-56.4,64.08-145.08,53.8-230.12,40.32c-125.8-19.96-144-123.72-163.88-186
				c-16.08-50.48-38.4-101.04-61-146c-38.4-76.36-77.52-136.56-88.16-152.52c-1.8-2.76-2.8-4.2-2.8-4.2s-20.2-94.958-26.72-154.799
				l-70.24-18.121l-39.4-195.44l-9-44.72l-0.52-2.56c1.28,0.84,2.6,1.72,3.88,2.56c22.44,14.8,44.76,29.68,66.84,44.72
				c0.88,0.56,1.76,1.16,2.6,1.76c37.92,25.76,75.2,51.84,111.44,78.32c16.88,12.28,33.48,24.68,49.88,37.16
				c120.92,92,228.04,188.8,306.44,292.72C2984.383,2542.546,3089.463,2702.826,3013.943,2788.666z"/>
		</g>
		<g style="opacity:0.35;">
			<path style="fill:#371A45;" d="M3038.543,2732.186c-2.439,21.2-10.24,40.16-24.6,56.48c-56.4,64.08-145.08,53.8-230.12,40.32
				c-125.8-19.96-144-123.72-163.88-186c-16.08-50.48-38.4-101.04-61-146c-38.4-76.36-77.52-136.56-88.16-152.52
				c-0.12-0.16-0.2-0.32-0.32-0.48l-29.2-150c0.92,0,1.4-0.08,1.4-0.08s28.027,29.517,51.603,65.004
				c51.338,77.276,142.348,285.619,158.428,336.099c19.88,62.28,55.524,164.528,151.13,183.137
				c84.516,16.45,173.72,23.76,230.12-40.32C3035.583,2735.986,3037.103,2734.106,3038.543,2732.186z"/>
		</g>
		<g>
			<path style="fill:#371A45;" d="M2444.438,2171.371c5.003,13.91,9.236,27.923,13.304,41.975
				c4.017,14.057,7.728,28.174,11.187,42.341c3.479,14.162,6.555,28.403,9.69,42.635c3.099,14.231,6.117,28.509,9.063,42.736
				l-2.674-6.354c3.154,4.609,6.043,8.986,8.98,13.486c2.889,4.493,5.763,8.977,8.585,13.498c2.785,4.535,5.599,9.054,8.342,13.612
				l8.133,13.723l7.948,13.823c2.668,4.596,5.242,9.246,7.809,13.899c2.565,4.654,5.169,9.285,7.7,13.958l7.55,14.042l3.765,7.025
				l3.666,7.082l7.375,14.138c2.455,4.715,4.786,9.499,7.188,14.244c2.377,4.759,4.818,9.483,7.143,14.271l6.878,14.415
				c2.271,4.816,4.646,9.577,6.774,14.469l6.539,14.594l3.269,7.297c1.066,2.444,2.063,4.924,3.097,7.384l6.15,14.789
				c1.013,2.471,2.077,4.917,3.047,7.408l2.854,7.5c3.767,10.018,7.755,19.936,11.063,30.159l5.185,15.234l1.285,3.816l1.21,3.87
				l2.345,7.684c3.05,10.178,5.956,20.139,9.089,29.896c6.235,19.49,13.4,38.204,22.943,55.188
				c9.494,16.979,21.421,32.09,35.933,44.115c7.254,6.001,15.055,11.35,23.442,15.773c8.382,4.431,17.232,8.079,26.376,11.1
				l6.955,2.044l1.737,0.515c0.582,0.164,1.182,0.285,1.771,0.431l3.55,0.84c4.695,1.235,9.552,2.001,14.361,2.911
				c1.167,0.232,2.49,0.427,3.776,0.63l3.868,0.608l7.724,1.187c5.144,0.776,10.277,1.528,15.4,2.232
				c20.485,2.816,40.86,4.975,60.951,5.394c20.062,0.406,39.889-0.936,58.506-5.472c18.592-4.538,35.815-12.426,50.357-23.969
				c3.646-2.867,7.107-5.979,10.424-9.259c0.415-0.409,0.851-0.796,1.251-1.222l1.192-1.289l2.39-2.572
				c0.391-0.428,0.815-0.855,1.181-1.283l1.067-1.283c0.696-0.865,1.466-1.682,2.111-2.58c5.438-7.003,9.729-14.722,12.679-23.062
				c5.987-16.663,6.629-35.63,3.938-54.672c-2.735-19.096-8.586-38.276-15.918-57.042c-7.386-18.781-16.313-37.209-26.047-55.303
				c-9.751-18.097-20.342-35.869-31.418-53.401c-22.198-35.054-46.295-69.159-71.067-102.865
				c-6.194-8.427-12.446-16.823-18.727-25.205c-3.137-4.178-6.294-8.407-9.447-12.527l-9.469-12.283
				c-12.798-16.254-26.095-32.145-39.796-47.71c-13.771-15.51-27.964-30.672-42.462-45.56
				c-14.546-14.847-29.464-29.353-44.604-43.642c-15.207-14.224-30.675-28.19-46.362-41.927
				c-15.754-13.666-31.643-27.191-47.808-40.409c-16.162-13.22-32.456-26.294-48.982-39.095
				c-8.219-6.453-16.562-12.759-24.853-19.125l-12.527-9.442c-4.172-3.153-8.356-6.289-12.568-9.392l-12.607-9.344l-12.678-9.256
				c-8.434-6.194-16.965-12.266-25.527-18.287c-17.194-11.959-34.733-23.42-52.029-35.243c-8.622-5.945-17.213-11.946-25.663-18.151
				c-8.475-6.176-16.873-12.463-25.146-18.954c-8.252-6.519-16.329-13.308-24.22-20.397c-7.843-7.157-15.606-14.452-22.758-22.694
				c-2.006-2.309-1.761-5.807,0.549-7.814c1.51-1.312,3.541-1.656,5.317-1.095c5.205,1.663,10.233,3.601,15.193,5.644
				c4.971,2.029,9.83,4.229,14.647,6.498c2.398,1.15,4.808,2.285,7.174,3.485c2.382,1.177,4.751,2.371,7.102,3.597
				c4.695,2.46,9.337,5.003,13.937,7.61c18.329,10.533,36.116,21.913,53.429,33.994c4.324,3.025,8.626,6.085,12.914,9.161
				l12.787,9.349l25.514,18.781c17.026,12.503,34.237,24.753,51.154,37.432c4.253,3.135,8.482,6.304,12.699,9.491l12.664,9.545
				c8.389,6.44,16.822,12.816,25.145,19.35c16.725,12.956,33.239,26.205,49.632,39.614c16.396,13.407,32.538,27.146,48.554,41.041
				c15.956,13.971,31.709,28.193,47.219,42.701c15.447,14.578,30.688,29.397,45.577,44.595
				c14.846,15.243,29.401,30.794,43.557,46.737c14.09,16.004,27.792,32.379,41.013,49.172l9.791,12.7
				c3.236,4.231,6.369,8.428,9.546,12.659c6.329,8.448,12.638,16.918,18.897,25.436c25.037,34.068,49.523,68.703,72.337,104.724
				c11.387,18.023,22.345,36.4,32.546,55.332c10.185,18.938,19.65,38.421,27.663,58.789c7.943,20.378,14.561,41.669,17.813,64.252
				c1.549,11.293,2.308,22.893,1.543,34.688c-0.077,1.471-0.173,2.944-0.341,4.423c-0.154,1.477-0.279,2.953-0.466,4.43
				c-0.418,2.957-0.824,5.913-1.439,8.862c-1.163,5.893-2.688,11.775-4.783,17.504c-4.06,11.493-10.106,22.387-17.579,31.979
				c-0.903,1.228-1.92,2.349-2.878,3.525l-1.462,1.742c-0.489,0.571-0.988,1.081-1.482,1.624l-2.978,3.206l-1.492,1.6
				c-0.501,0.53-1.043,1.025-1.563,1.538c-4.155,4.116-8.528,8.041-13.145,11.674c-9.213,7.292-19.309,13.496-29.882,18.471
				c-10.574,4.986-21.604,8.754-32.731,11.487c-22.307,5.42-44.819,6.811-66.756,6.38c-21.974-0.464-43.497-2.782-64.666-5.687
				c-5.294-0.728-10.563-1.5-15.817-2.293l-7.866-1.208l-3.922-0.616c-1.311-0.208-2.589-0.394-4.002-0.667
				c-5.524-1.029-11.06-1.928-16.547-3.35l-4.122-0.982c-0.686-0.17-1.376-0.315-2.059-0.506l-2.045-0.599l-8.175-2.409
				c-10.828-3.562-21.478-7.942-31.688-13.351c-10.217-5.398-19.872-11.981-28.805-19.382c-8.928-7.419-17.068-15.753-24.296-24.706
				c-7.235-8.952-13.563-18.508-19.09-28.36c-11.072-19.728-18.931-40.548-25.508-61.076c-3.295-10.266-6.276-20.497-9.265-30.462
				l-2.259-7.401l-1.143-3.657l-1.234-3.657l-4.981-14.627c-3.159-9.796-7.029-19.396-10.661-29.063l-2.752-7.242
				c-0.936-2.408-1.972-4.784-2.953-7.177l-5.963-14.337c-1.003-2.386-1.965-4.787-3.002-7.161l-3.18-7.096l-6.359-14.194
				c-2.064-4.753-4.388-9.403-6.601-14.097l-6.705-14.055c-4.616-9.306-9.295-18.588-14.048-27.83l-7.349-13.759l-3.696-6.867
				l-3.817-6.805l-7.651-13.599c-2.581-4.516-5.257-8.979-7.88-13.47l-3.952-6.727l-4.032-6.679l-8.101-13.333l-8.229-13.246
				l-8.313-13.177l-8.389-13.09l-4.209-6.505l-4.187-6.336l-2.058-3.115l-0.616-3.24c-2.739-14.405-5.305-28.779-7.736-43.21
				c-2.395-14.43-4.772-28.866-6.647-43.4c-1.905-14.527-3.464-29.122-4.52-43.812c-0.997-14.696-1.739-29.449-1.123-44.399
				c0.123-2.998,2.653-5.328,5.651-5.204c2.271,0.094,4.16,1.57,4.888,3.585L2444.438,2171.371z"/>
		</g>
		<g>
			<path style="fill:#371A45;" d="M2545.59,2486.719c-3.247,0-6.523-0.984-9.356-3.032c-7.163-5.175-8.774-15.177-3.599-22.339
				c1.556-2.153,38.819-53.143,100.782-87.995c58.374-32.834,149.827-56.788,254.008,15.549c7.259,5.04,9.058,15.01,4.018,22.268
				c-5.039,7.262-15.011,9.056-22.268,4.018c-72.716-50.489-146.758-55.181-220.069-13.943
				c-55.899,31.441-90.193,78.375-90.533,78.845C2555.444,2484.417,2550.552,2486.719,2545.59,2486.719z"/>
		</g>
		<g>
			<g>
				<path style="fill:#FFFFFF;" d="M2650.847,1717.875L2650.847,1717.875c-6.813,0.509-12.75-4.602-13.259-11.415l-26.544-355.36
					c-0.509-6.813,4.602-12.75,11.415-13.258h0c71.481-5.339,133.756,48.279,139.095,119.76l9.052,121.179
					C2775.946,1650.261,2722.327,1712.536,2650.847,1717.875z"/>
				<path style="fill:#371A45;" d="M2649.914,1720.785c-7.896,0-14.596-6.112-15.192-14.111l-26.544-355.36
					c-0.626-8.383,5.685-15.712,14.067-16.339c72.932-5.455,136.728,49.464,142.176,122.412l9.052,121.179
					c5.448,72.947-49.465,136.727-122.412,142.176l0,0C2650.677,1720.771,2650.294,1720.785,2649.914,1720.785z M2632.217,1340.351
					c-3.161,0-6.341,0.117-9.544,0.356c-5.222,0.391-9.152,4.957-8.763,10.179l26.544,355.36c0.189,2.529,1.352,4.834,3.274,6.489
					c1.923,1.656,4.374,2.463,6.904,2.273l0,0c69.785-5.212,122.319-66.229,117.107-136.015l-9.052-121.179
					C2753.714,1391.232,2697.937,1340.351,2632.217,1340.351z"/>
			</g>
			<g style="opacity:0.35;">
				<path style="fill:#371A45;" d="M2766.361,1521.957l4.258,56.833c5.328,71.457-48.284,133.744-119.778,139.111
					c-6.811,0.516-12.746-4.631-13.263-11.442l-7.087-94.465c2.235,4.164,6.768,6.816,11.772,6.481l8.425-0.653
					C2707.176,1613.615,2752.537,1573.813,2766.361,1521.957z"/>
			</g>
			<g>
				<path style="fill:#371A45;" d="M2649.881,1733.912c-6.784,0-13.272-2.4-18.467-6.873c-5.743-4.944-9.218-11.83-9.781-19.387
					l-26.544-355.359c-1.165-15.6,10.578-29.24,26.178-30.406c80.166-5.991,150.255,54.359,156.243,134.523l9.052,121.179
					c5.988,80.165-54.359,150.255-134.523,156.243l0,0C2651.316,1733.885,2650.598,1733.912,2649.881,1733.912z M2627.274,1353.583
					l25.994,348.009c60.758-6.466,105.965-60.263,101.382-121.621l-9.051-121.179
					C2741.016,1397.436,2688.309,1350.953,2627.274,1353.583z"/>
			</g>
			<g>
				<path style="fill:#FFFFFF;" d="M1449.499,1425.458L1449.499,1425.458c6.814-0.509,12.75,4.602,13.259,11.415l26.544,355.36
					c0.509,6.813-4.602,12.749-11.415,13.258h0c-71.481,5.339-133.756-48.279-139.095-119.76l-9.052-121.179
					C1324.4,1493.072,1378.018,1430.797,1449.499,1425.458z"/>
				<path style="fill:#371A45;" d="M1468.124,1808.731c-68.703,0.004-127.001-53.182-132.2-122.785l-9.052-121.179
					c-5.449-72.947,49.465-136.727,122.412-142.175l0,0c4.065-0.307,7.998,0.993,11.083,3.649c3.086,2.657,4.953,6.357,5.256,10.418
					l26.544,355.36c0.304,4.061-0.992,7.997-3.649,11.083c-2.657,3.086-6.357,4.953-10.418,5.256
					C1474.756,1808.608,1471.425,1808.731,1468.124,1808.731z M1449.712,1428.324c-69.786,5.213-122.319,66.229-117.107,136.015
					l9.051,121.179c5.213,69.786,66.233,122.327,136.016,117.108c2.529-0.189,4.834-1.352,6.489-3.274
					c1.655-1.922,2.462-4.375,2.273-6.904l-26.544-355.361c-0.188-2.529-1.352-4.834-3.273-6.489
					C1454.694,1428.943,1452.239,1428.137,1449.712,1428.324L1449.712,1428.324z"/>
			</g>
			<g style="opacity:0.35;">
				<path style="fill:#371A45;" d="M1481.966,1693.647l7.352,98.584c0.516,6.81-4.632,12.746-11.441,13.263
					c-37.519,2.786-72.537-10.645-98.092-34.414c-23.078-21.465-38.439-51.39-40.979-85.328l-3.817-51.062
					c23.637,43.283,71.177,71.116,123.585,67.21l12.968-0.971C1476.275,1700.567,1480.104,1697.65,1481.966,1693.647z"/>
			</g>
			<g>
				<path style="fill:#371A45;" d="M1467.991,1821.862c-34.863,0.001-68.202-12.334-94.896-35.317
					c-29.51-25.408-47.36-60.788-50.261-99.621l-9.051-121.179c-5.988-80.165,54.359-150.255,134.523-156.243h0
					c7.557-0.56,14.883,1.847,20.625,6.792c5.743,4.944,9.217,11.83,9.781,19.387l26.544,355.36
					c0.565,7.557-1.847,14.882-6.792,20.625c-4.944,5.743-11.83,9.216-19.387,9.781
					C1475.371,1821.724,1471.67,1821.862,1467.991,1821.862z M1447.076,1441.741c-60.757,6.466-105.964,60.263-101.381,121.621
					l9.051,121.179c2.264,30.31,16.196,57.923,39.229,77.754c22.114,19.04,50.078,28.713,79.097,27.456L1447.076,1441.741z
					 M1450.692,1441.414h-0.001C1450.69,1441.414,1450.691,1441.414,1450.692,1441.414z"/>
			</g>
			<g style="opacity:0.35;">
				<path style="fill:#371A45;" d="M2532.223,2021.026c-8.08,10.6-16.561,20.92-25.36,30.96c-24,27.36-50.44,52.56-79,75.24
					c-18.12,14.4-37.12,27.84-56.84,40.12c-92.48,57.68-201.6,91.16-318.6,91.56c-135.4,0.48-260.6-43.36-361.84-117.96
					c-7.399-5.4-14.64-11-21.76-16.8c-15.96-12.88-31.28-26.56-45.84-41.04c-14.04-13.84-27.36-28.4-40-43.6
					c30.12-66.08,96.84-112.32,173.88-112.32h565.76l-0.52-2.56c1.28,0.84,2.6,1.72,3.88,2.56h42.08
					C2437.663,1927.186,2498.903,1964.946,2532.223,2021.026z"/>
			</g>
			<g>
				<circle style="fill:#FFFFFF;" cx="2050.247" cy="1571.661" r="607.25"/>
				<path style="fill:#371A45;" d="M2050.176,2181.785c-81.572,0-160.761-15.844-235.41-47.104
					c-72.763-30.471-138.168-74.229-194.4-130.061c-56.231-55.832-100.456-120.923-131.445-193.466
					c-32.084-75.107-48.501-154.952-48.795-237.316s15.553-162.324,47.1-237.658c30.471-72.763,74.229-138.168,130.061-194.4
					s120.923-100.456,193.466-131.445c75.107-32.084,154.952-48.501,237.316-48.795c0.749-0.002,1.501-0.004,2.25-0.004
					c81.571,0,160.759,15.844,235.407,47.104c72.763,30.471,138.168,74.229,194.399,130.061
					c56.232,55.832,100.456,120.923,131.445,193.466c32.084,75.107,48.501,154.952,48.795,237.316
					c0.295,82.364-15.553,162.324-47.1,237.658c-30.47,72.763-74.229,138.168-130.061,194.399
					c-55.831,56.231-120.923,100.456-193.466,131.445c-75.107,32.084-154.951,48.501-237.316,48.795
					C2051.675,2181.784,2050.924,2181.785,2050.176,2181.785z M2050.309,967.286c-0.749,0-1.471,0.001-2.22,0.004
					c-161.433,0.576-312.979,63.983-426.723,178.542s-176.067,266.553-175.491,427.987
					c1.187,332.519,272.087,602.216,604.337,602.219c0.731,0,1.459-0.002,2.19-0.004c333.252-1.19,603.404-273.278,602.215-606.529
					c-0.577-161.434-63.984-312.98-178.542-426.723C2362.049,1029.565,2210.905,967.286,2050.309,967.286z"/>
			</g>
			<g style="opacity:0.35;">
				<path style="fill:#371A45;" d="M2651.372,1485.456c3.965,27.443,6.023,55.496,6.132,84.044
					c1.151,335.363-269.737,608.2-605.098,609.428c-335.363,1.152-608.199-269.736-609.428-605.097
					c-0.041-9.644,0.149-19.298,0.577-28.804c41.994,295.455,296.444,522.137,603.297,521.053
					C2372.568,2064.892,2637.42,1807.516,2651.372,1485.456z"/>
			</g>
			<g>
				<path style="fill:#371A45;" d="M2050.176,2194.911c-83.321,0-164.216-16.187-240.479-48.123
					c-74.33-31.126-141.141-75.824-198.578-132.853c-57.437-57.029-102.611-123.519-134.267-197.625
					c-32.778-76.731-49.55-158.295-49.85-242.425s15.889-165.812,48.118-242.775c31.126-74.33,75.825-141.141,132.853-198.578
					c57.028-57.437,123.519-102.611,197.625-134.267c76.731-32.778,158.295-49.55,242.426-49.85
					c0.765-0.003,1.532-0.004,2.297-0.004c83.321,0,164.214,16.186,240.478,48.122c74.329,31.126,141.141,75.825,198.577,132.853
					c57.438,57.028,102.611,123.519,134.268,197.625c32.778,76.731,49.55,158.295,49.851,242.425s-15.889,165.812-48.118,242.775
					c-31.127,74.33-75.825,141.141-132.854,198.577c-57.028,57.438-123.519,102.611-197.624,134.268
					c-76.731,32.778-158.295,49.55-242.426,49.851C2051.706,2194.91,2050.94,2194.911,2050.176,2194.911z M2050.307,980.412
					c-0.731,0-1.438,0.001-2.17,0.004c-157.928,0.563-306.184,62.594-417.457,174.664
					c-111.273,112.07-172.243,260.765-171.679,418.692c1.161,325.297,266.178,589.137,591.213,589.14
					c0.715,0,1.427-0.001,2.143-0.004c326.015-1.164,590.3-267.342,589.136-593.356c-0.563-157.927-62.594-306.183-174.664-417.456
					C2355.277,1041.338,2207.416,980.412,2050.307,980.412z"/>
			</g>
			<g>
				<path style="fill:#371A45;" d="M2655.606,1585.097c2.219,118.809-34.288,229.832-98.542,322.326
					c-48.171,69.344-249.211,192.884-500.181,199.828c-232.702,6.439-446.78-113.697-497.507-181.193
					c-67.663-90.031-108.29-199.613-110.509-318.422c-5.872-314.403,261.817-449.787,595.063-456.011
					C2377.176,1145.401,2649.734,1270.694,2655.606,1585.097z"/>
			</g>
			<g>
				<path style="fill:#371A45;" d="M2038.521,2123.505c-125.692,0.003-234.45-34.57-304.871-64.391
					c-84.019-35.578-157.445-84.033-187.064-123.443c-72.183-96.044-111.505-209.374-113.716-327.736
					c-1.469-78.659,13.813-149.537,45.423-210.664c29.767-57.562,74.141-106.819,131.89-146.405
					c105.12-72.057,255.003-111.906,433.448-115.238c178.428-3.343,329.713,30.891,437.449,98.972
					c59.188,37.401,105.369,84.968,137.265,141.378c33.87,59.904,51.789,130.162,53.258,208.82
					c2.211,118.361-32.852,233.08-101.397,331.754c-28.678,41.281-97.834,90.602-180.481,128.714
					c-72.386,33.381-188.813,74.006-332.397,77.979C2051.022,2123.42,2044.745,2123.505,2038.521,2123.505z M2067.357,1167.405
					c-7.654,0-15.363,0.072-23.129,0.217c-172.173,3.216-316.007,41.128-415.953,109.639
					c-111.1,76.156-166.08,187.21-163.412,330.077c2.084,111.59,39.189,218.478,107.303,309.108
					c21.694,28.866,83.897,75.063,173.961,113.202c70.985,30.06,182.441,65.162,310.313,61.61
					c251.544-6.96,444.541-131.148,487.482-192.962c64.682-93.111,97.77-201.31,95.685-312.899l0,0
					c-2.668-142.867-61.757-251.79-175.623-323.744C2366.172,1199.841,2229.407,1167.405,2067.357,1167.405z"/>
			</g>
			<g style="opacity:0.7;">
				
					<ellipse transform="matrix(0.1599 -0.9871 0.9871 0.1599 539.4258 3725.9275)" style="fill:#FFFFFF;" cx="2458.71" cy="1546.049" rx="107.464" ry="77.87"/>
			</g>
			<g style="opacity:0.7;">
				
					<ellipse transform="matrix(0.2948 -0.9556 0.9556 0.2948 -12.9191 3503.8333)" style="fill:#FFFFFF;" cx="2367.31" cy="1760.669" rx="49.325" ry="42.329"/>
			</g>
			<g>
				<path style="fill:#371A45;" d="M1489.306,1354.691c-3.521,0-7.064-1.156-10.02-3.535c-6.629-5.333-7.886-14.869-3.026-21.716
					c26.513-40.535,59.881-77.277,99.178-109.208c38.26-31.088,82.452-57.876,131.349-79.619
					c47.876-21.289,100.566-37.88,156.605-49.312c55.531-11.329,114.635-17.652,175.67-18.793
					c120.507-2.257,235.479,16.373,332.491,53.85c49.905,19.279,95.352,43.556,135.079,72.155
					c40.835,29.398,75.878,63.554,104.165,101.525c4.871,5.763,5.113,14.354,0.177,20.419c-5.577,6.853-15.654,7.888-22.51,2.309
					l-1.641-1.306l-1.194-1.64c-104.852-141.355-303.859-219.85-545.97-215.318c-243.462,4.552-439.146,93.066-536.877,242.846
					l-0.435,0.667l-0.567,0.705C1498.621,1352.649,1493.984,1354.691,1489.306,1354.691z"/>
			</g>
			<g style="opacity:0.7;">
				<path style="fill:#FFFFFF;" d="M1587.865,1792.142c0,0-103.169-308.341,61.678-435.062
					c164.847-126.72,405.345-130.714,400.01-115.185c0,0-265.035,69.427-365.275,281.85
					C1606.98,1687.551,1587.865,1792.142,1587.865,1792.142z"/>
			</g>
		</g>
		<g>
			<path style="fill:#FFFFFF;" d="M2824.444,1607.234c0-485.503-350.891-879.081-783.738-879.081s-783.738,393.578-783.738,879.081
				h74.253c0-439.506,317.647-795.796,709.485-795.796s709.485,356.29,709.485,795.796"/>
		</g>
		<g style="opacity:0.3;">
			<path style="fill:#371A45;" d="M2824.45,1607.244h-74.242c0-439.516-317.679-795.801-709.519-795.801
				c-391.801,0-709.479,356.284-709.479,795.801h-74.243c0-17.738,0.482-35.356,1.404-52.853h72.838
				c0-439.516,317.678-795.8,709.479-795.8c391.84,0,709.519,356.284,709.519,795.8h72.838
				C2823.968,1571.889,2824.45,1589.506,2824.45,1607.244z"/>
		</g>
		<g>
			<path style="fill:#371A45;" d="M2824.443,1623.234c-8.837,0-16-7.164-16-16c0-475.905-344.405-863.081-767.737-863.081
				c-418.578,0-759.993,378.529-767.608,847.081h42.26c1.773-103.718,20.808-204.363,56.647-299.405
				c36.431-96.609,88.606-183.397,155.077-257.955c66.589-74.69,144.175-133.351,230.603-174.354
				c89.629-42.522,184.851-64.082,283.022-64.082s193.393,21.56,283.021,64.082c86.429,41.003,164.015,99.664,230.604,174.354
				c66.471,74.557,118.646,161.346,155.076,257.955c37.68,99.921,56.784,206.038,56.784,315.405c0,8.836-7.163,16-16,16
				s-16-7.164-16-16c0-429.981-311.097-779.795-693.485-779.795c-382.389,0-693.485,349.814-693.485,779.795v16h-106.253v-16
				c0-120.61,21.068-237.635,62.619-347.823c40.17-106.527,97.699-202.222,170.99-284.429
				c73.408-82.338,158.935-147.004,254.205-192.202c98.783-46.865,203.729-70.627,311.924-70.627
				c108.194,0,213.142,23.762,311.924,70.627c95.271,45.198,180.797,109.864,254.205,192.202
				c73.29,82.207,130.819,177.902,170.989,284.429c41.551,110.188,62.619,227.213,62.619,347.823
				C2840.443,1616.071,2833.28,1623.234,2824.443,1623.234z"/>
		</g>
		<g>
			<path style="fill:#D3D3D3;" d="M1360.707,1362.621l-14.672,395.781c-0.111,2.981-0.023,5.942,0.263,8.854
				c3.161,32.508,30.131,58.688,63.631,59.93c36.481,1.352,67.459-27.383,68.811-63.865l14.673-395.781
				c1.354-36.509-27.411-67.46-63.893-68.812c-18.226-0.676-35.098,6.163-47.583,17.755c-10.414,9.669-17.767,22.635-20.282,37.3
				C1361.125,1356.665,1360.818,1359.611,1360.707,1362.621z"/>
		</g>
		<g>
			<path style="fill:#F92323;" d="M1209.54,1480.384l-5.538,149.385c-2.692,72.625,54.51,134.232,127.135,136.925l15.16,0.562
				c-0.286-2.912-0.374-5.872-0.263-8.854l14.672-395.781c0.112-3.01,0.418-5.956,0.947-8.837l-15.189-0.563
				C1273.84,1350.528,1212.232,1407.759,1209.54,1480.384z"/>
		</g>
		<g>
			<path style="fill:#D3D3D3;" d="M2721.976,1362.621l14.673,395.781c0.111,2.981,0.023,5.942-0.263,8.854
				c-3.161,32.508-30.131,58.688-63.631,59.93c-36.481,1.352-67.459-27.383-68.812-63.865l-14.673-395.781
				c-1.354-36.509,27.412-67.46,63.893-68.812c18.227-0.676,35.098,6.163,47.583,17.755c10.414,9.669,17.767,22.635,20.283,37.3
				C2721.558,1356.665,2721.865,1359.611,2721.976,1362.621z"/>
		</g>
		<g style="opacity:0.6;">
			<path style="fill:#FFFFFF;" d="M2736.402,1767.247c-0.201,1.966-0.481,3.933-0.843,5.859l-13.564-366.197
				c-0.12-3.01-0.442-5.939-0.963-8.829c-2.529-14.688-9.873-27.65-20.266-37.322c-12.481-11.598-29.376-18.42-47.596-17.738
				c-31.462,1.164-57.187,24.36-62.805,54.177l-1.083-29.657c-1.365-36.519,27.41-67.46,63.888-68.825
				c18.22-0.682,35.075,6.18,47.596,17.778c10.394,9.672,17.738,22.634,20.266,37.282c0.521,2.889,0.843,5.819,0.963,8.829
				l14.647,395.813C2736.763,1761.388,2736.683,1764.358,2736.402,1767.247z"/>
		</g>
		<g style="opacity:0.35;">
			<path style="fill:#371A45;" d="M2736.402,1767.247c-3.171,32.506-30.139,58.712-63.648,59.956
				c-36.479,1.324-67.461-27.409-68.825-63.889l-14.648-395.773c-0.321-8.267,0.923-16.213,3.451-23.637l11.197,301.987
				c1.364,36.479,32.345,65.213,68.825,63.849c28.212-1.044,51.809-19.745,60.437-45.068l3.451,93.747
				C2736.763,1761.388,2736.683,1764.358,2736.402,1767.247z"/>
		</g>
		<g>
			<path style="fill:#F92323;" d="M2873.143,1480.384l5.538,149.385c2.692,72.625-54.51,134.232-127.135,136.925l-15.16,0.562
				c0.286-2.912,0.374-5.872,0.263-8.854l-14.673-395.781c-0.112-3.01-0.418-5.956-0.947-8.837l15.188-0.563
				C2808.843,1350.528,2870.451,1407.759,2873.143,1480.384z"/>
		</g>
		<g style="opacity:0.6;">
			<path style="fill:#FFFFFF;" d="M2878.667,1629.758c0.24,6.702,0,13.324-0.763,19.825l-4.775-128.74
				c-2.688-72.638-64.29-129.865-136.927-127.176l-13.042,0.482l-1.164-31.543c-0.12-3.01-0.442-5.94-0.963-8.829l15.169-0.562
				c72.637-2.689,134.239,54.538,136.927,127.176L2878.667,1629.758z"/>
		</g>
		<g style="opacity:0.6;">
			<path style="fill:#FFFFFF;" d="M1343.581,1767.247c0.201,1.966,0.482,3.933,0.843,5.859l13.564-366.197
				c0.12-3.01,0.442-5.939,0.963-8.829c2.529-14.688,9.873-27.65,20.266-37.322c12.481-11.598,29.376-18.42,47.596-17.738
				c31.462,1.164,57.187,24.36,62.805,54.177l1.084-29.657c1.364-36.519-27.41-67.46-63.888-68.825
				c-18.22-0.682-35.075,6.18-47.596,17.778c-10.394,9.672-17.738,22.634-20.266,37.282c-0.521,2.889-0.843,5.819-0.963,8.829
				l-14.648,395.813C1343.22,1761.388,1343.3,1764.358,1343.581,1767.247z"/>
		</g>
		<g style="opacity:0.6;">
			<path style="fill:#FFFFFF;" d="M1201.316,1629.758c-0.24,6.702,0,13.324,0.763,19.825l4.775-128.74
				c2.688-72.638,64.29-129.865,136.927-127.176l13.043,0.482l1.164-31.543c0.12-3.01,0.442-5.94,0.963-8.829l-15.169-0.562
				c-72.637-2.689-134.239,54.538-136.927,127.176L1201.316,1629.758z"/>
		</g>
		<g style="opacity:0.35;">
			<path style="fill:#371A45;" d="M2751.531,1766.685l-15.129,0.562c0.281-2.889,0.361-5.859,0.24-8.829l-14.647-395.813
				c-0.12-3.01-0.442-5.94-0.963-8.829l4.294-0.161l11.317,305.599c0.121,3.01,2.104-70.157,1.823-67.227
				c0,0,15.938,71.318,61.429,66.968c31.873-3.047,64.445-38.989,76.243-97.42l2.528,68.223
				C2881.355,1702.395,2824.169,1763.996,2751.531,1766.685z"/>
		</g>
		<g style="opacity:0.35;">
			<path style="fill:#371A45;" d="M1343.58,1767.232c3.171,32.506,30.138,58.712,63.648,59.956
				c36.48,1.324,67.461-27.409,68.825-63.889l14.648-395.773c0.321-8.267-0.923-16.213-3.451-23.637l-11.197,301.987
				c-1.364,36.479-32.345,65.213-68.825,63.849c-28.212-1.043-51.809-19.745-60.437-45.067l-3.451,93.746
				C1343.219,1761.373,1343.3,1764.342,1343.58,1767.232z"/>
		</g>
		<g style="opacity:0.35;">
			<path style="fill:#371A45;" d="M1328.451,1766.67l15.129,0.562c-0.281-2.889-0.361-5.859-0.241-8.829l14.647-395.813
				c0.12-3.01,0.442-5.94,0.963-8.829l-4.294-0.161l-11.317,305.599c-0.12,3.01-2.104-70.157-1.823-67.227
				c0,0-15.937,71.318-61.429,66.968c-31.873-3.047-64.445-38.989-76.244-97.42l-2.528,68.223
				C1198.627,1702.38,1255.813,1763.981,1328.451,1766.67z"/>
		</g>
		<g>
			<path style="fill:#371A45;" d="M2670.254,1843.232c-44.038,0.002-80.655-34.963-82.3-79.318l-14.672-395.781
				c-1.683-45.403,33.886-83.711,79.289-85.394c21.929-0.82,42.896,7.007,59.063,22.019c13.186,12.244,22.114,28.658,25.149,46.229
				c0.645,3.535,1.042,7.249,1.183,11.042l14.673,395.779c0.137,3.693,0.025,7.397-0.329,11.012
				c-3.973,40.86-37.919,72.833-78.962,74.354C2672.313,1843.213,2671.28,1843.232,2670.254,1843.232z M2655.643,1314.682
				c-0.627,0-1.256,0.012-1.886,0.035c-27.771,1.03-49.525,24.46-48.496,52.231l14.672,395.781
				c1.028,27.755,24.434,49.498,52.229,48.468c25.104-0.93,45.868-20.486,48.299-45.489c0.217-2.203,0.283-4.457,0.199-6.714
				l-14.673-395.781c-0.084-2.289-0.318-4.488-0.694-6.538l-0.033-0.186c-1.84-10.724-7.309-20.768-15.4-28.281
				C2680.423,1319.445,2668.335,1314.682,2655.643,1314.682z"/>
		</g>
		<g>
			<path style="fill:#371A45;" d="M2718.671,1783.923l1.792-18.232c0.215-2.187,0.281-4.44,0.197-6.697l-14.673-395.78
				c-0.085-2.29-0.318-4.49-0.694-6.539l-3.343-18.194l33.675-1.249c39.394-1.468,77.1,12.604,106.169,39.603
				c29.066,26.996,45.878,63.56,47.339,102.957l5.538,149.385c1.46,39.396-12.599,77.1-39.588,106.167
				c-26.988,29.067-63.549,45.879-102.944,47.34L2718.671,1783.923z M2738.23,1369.165l14.143,381.478
				c30.312-1.49,58.413-14.622,79.26-37.074c21.173-22.803,32.204-52.354,31.06-83.208l-5.538-149.385
				C2854.799,1417.452,2801.583,1367.587,2738.23,1369.165z"/>
		</g>
		<g>
			<g>
				<path style="fill:#4DA2FF;" d="M2404.982,988.013c-229.681-135.831-474.257-135.85-703.967,0
					c-22.497,14.331-50.014,7.154-61.744-17.913c-14.236-30.423-21.355-45.635-35.591-76.057
					c-11.73-25.067,0.166-61.568,27.148-78.757c273.874-163.61,570.444-163.622,844.34,0.001
					c26.982,17.189,38.878,53.69,27.148,78.757c-14.236,30.423-21.354,45.635-35.591,76.057
					C2454.996,995.168,2427.479,1002.345,2404.982,988.013z"/>
			</g>
		</g>
		<g style="opacity:0.6;">
			<g>
				<path style="fill:#FFFFFF;" d="M2502.919,892.629c-4.936-14.086-14.528-27.169-27.73-35.596
					c-273.935-163.615-570.504-163.615-844.36,0c-13.203,8.427-22.794,21.47-27.771,35.556
					c-10.674-24.962,1.325-60.438,27.771-77.293c273.855-163.615,570.425-163.615,844.36,0
					C2501.674,832.151,2513.594,867.667,2502.919,892.629z"/>
			</g>
			<g>
				
					<ellipse transform="matrix(0.1357 -0.9908 0.9908 0.1357 1135.0416 2844.2427)" style="fill:#FFFFFF;" cx="2197.653" cy="771.59" rx="41.756" ry="73.943"/>
			</g>
		</g>
		<g style="opacity:0.35;">
			<g>
				<path style="fill:#371A45;" d="M2502.317,894.034c-14.247,30.419-21.35,45.629-35.597,76.048
					c-11.718,25.082-39.248,32.265-61.721,17.939c-229.711-135.844-474.27-135.844-703.981,0
					c-22.514,14.327-50.004,7.143-61.762-17.939c-14.207-30.419-21.35-45.629-35.556-76.048
					c-7.384-15.771-5.418-36.078,3.773-53.254c11.798,25.283,18.902,40.372,31.784,67.982
					c11.758,25.082,39.248,32.266,61.762,17.939c229.711-135.884,474.27-135.844,703.981,0
					c22.473,14.327,50.003,7.143,61.721-17.939c12.922-27.57,19.945-42.659,31.784-67.902
					C2507.734,857.996,2509.7,878.302,2502.317,894.034z"/>
			</g>
		</g>
		<g>
			<g>
				<path style="fill:#371A45;" d="M2428.968,1011.345c-11.092,0-22.193-3.279-32.343-9.685
					c-224.813-132.867-462.443-132.865-687.253,0c-14.981,9.458-32.04,12.1-48.072,7.438c-16.006-4.654-28.977-16.095-36.52-32.216
					l-35.591-76.058c-7.475-15.973-8.045-35.238-1.605-54.247c6.327-18.677,18.632-34.582,34.649-44.785l0.391-0.242
					c138.814-82.927,283.611-124.975,430.367-124.976c146.761-0.001,291.563,42.047,430.384,124.977l0.391,0.241
					c16.017,10.203,28.322,26.108,34.649,44.785c6.439,19.009,5.869,38.275-1.606,54.248l-35.59,76.057
					c-7.544,16.121-20.514,27.562-36.521,32.216C2439.527,1010.601,2434.247,1011.345,2428.968,1011.345z M2052.997,870.133
					c0.008,0,0.006,0,0.013,0c122.148,0.002,243.31,35.03,360.117,104.108l0.452,0.278c7.16,4.562,15.04,5.93,22.185,3.852
					c7.036-2.046,12.886-7.391,16.47-15.051l35.591-76.058c8.454-18.064-1.59-45.824-21.074-58.366
					c-266.833-159.318-560.675-159.316-827.506,0c-19.484,12.543-29.525,40.301-21.072,58.366l35.591,76.057
					c3.584,7.661,9.434,13.006,16.471,15.052c7.148,2.078,15.025,0.709,22.185-3.852l0.452-0.278
					C1809.678,905.162,1930.848,870.133,2052.997,870.133z"/>
			</g>
		</g>
		<g>
			<path style="fill:#371A45;" d="M1412.428,1843.232c-1.029,0-2.057-0.019-3.093-0.057c-41.042-1.521-74.988-33.494-78.963-74.371
				c-0.354-3.603-0.464-7.308-0.327-10.997l14.672-395.781c0.141-3.791,0.538-7.5,1.18-11.027
				c3.033-17.576,11.963-33.996,25.151-46.241c16.168-15.012,37.152-22.832,59.063-22.019c45.403,1.683,80.973,39.991,79.29,85.394
				l-14.673,395.781C1493.084,1808.266,1456.463,1843.232,1412.428,1843.232z M1376.695,1363.213l-14.672,395.781
				c-0.083,2.257-0.017,4.51,0.197,6.699c2.433,25.016,23.197,44.573,48.3,45.503c0.632,0.023,1.265,0.035,1.893,0.035
				c26.936,0.001,49.332-21.38,50.337-48.503l14.672-395.781c1.03-27.771-20.726-51.201-48.497-52.231
				c-13.384-0.484-26.2,4.296-36.104,13.491c-8.091,7.513-13.56,17.556-15.399,28.281l-0.033,0.186
				C1377.015,1358.721,1376.781,1360.921,1376.695,1363.213L1376.695,1363.213z"/>
		</g>
		<g>
			<path style="fill:#371A45;" d="M1364.009,1783.923l-33.465-1.24c-39.396-1.461-75.955-18.273-102.944-47.34
				c-26.989-29.067-41.048-66.771-39.588-106.167l5.538-149.385l15.989,0.593l-15.989-0.593
				c3.026-81.633,71.879-145.589,153.508-142.56l33.675,1.249l-3.342,18.194c-0.376,2.047-0.61,4.247-0.695,6.541l-14.672,395.779
				c-0.083,2.257-0.017,4.51,0.197,6.699L1364.009,1783.923z M1341.516,1369.128c-62.063,0-113.669,49.304-115.988,111.848
				l-5.538,149.385c-2.354,63.513,47.013,117.173,110.321,120.282l14.142-381.478
				C1343.471,1369.141,1342.493,1369.128,1341.516,1369.128z"/>
		</g>
		<g>
			<ellipse style="fill:#22A7F0;" cx="3126.691" cy="3031.042" rx="45.847" ry="24.387"/>
		</g>
		<g>
			<ellipse style="fill:#22A7F0;" cx="3267.911" cy="3031.042" rx="45.847" ry="24.387"/>
		</g>
		<g>
			<path style="fill:#371A45;" d="M3126.691,3071.428c-35.259,0-61.847-17.362-61.847-40.386c0-23.024,26.588-40.387,61.847-40.387
				s61.847,17.362,61.847,40.387C3188.538,3054.065,3161.95,3071.428,3126.691,3071.428z M3097.314,3031.042
				c2.756,3.036,12.914,8.386,29.377,8.386s26.621-5.35,29.377-8.386c-2.755-3.037-12.914-8.387-29.377-8.387
				S3100.069,3028.005,3097.314,3031.042z M3156.691,3031.914h0.01H3156.691z"/>
		</g>
		<g>
			<path style="fill:#371A45;" d="M3267.911,3071.428c-35.259,0-61.847-17.362-61.847-40.386c0-23.024,26.588-40.387,61.847-40.387
				s61.847,17.362,61.847,40.387C3329.758,3054.065,3303.17,3071.428,3267.911,3071.428z M3238.534,3031.042
				c2.756,3.036,12.914,8.386,29.377,8.386s26.621-5.35,29.377-8.386c-2.755-3.037-12.914-8.387-29.377-8.387
				S3241.289,3028.005,3238.534,3031.042z M3297.911,3031.914h0.01H3297.911z"/>
		</g>
	</g>
</g>
</svg>
