<?xml version="1.0" encoding="utf-8"?>
<!-- Generator: Adobe Illustrator 27.5.0, SVG Export Plug-In . SVG Version: 6.00 Build 0)  -->
<svg version="1.1" id="Layer_1" xmlns="http://www.w3.org/2000/svg" xmlns:xlink="http://www.w3.org/1999/xlink" x="0px" y="0px"
	 viewBox="0 0 445.078 350.72" style="enable-background:new 0 0 445.078 350.72;" xml:space="preserve">
<g>
	<path style="fill:#1D1E1C;" d="M249.284,106.492c-2.261-0.119-4.293,0.607-6.115,1.924c-0.524,0.377,0.064,1.186,0.586,0.809
		c1.6-1.154,3.391-1.848,5.385-1.744C249.777,107.515,249.929,106.525,249.284,106.492z"/>
	<path style="fill:#1D1E1C;" d="M250.406,109.739c-1.366,0.098-2.631,0.462-3.874,1.03c-0.585,0.268-0.227,1.201,0.359,0.934
		c1.17-0.535,2.34-0.879,3.626-0.97C251.162,110.688,251.047,109.693,250.406,109.739z"/>
	<g>
		<g>
			<path style="fill:#1151E4;" d="M423.167,115.934c-1.948-0.488-3.918-0.559-5.916-0.624c-0.309-0.011-0.626,0-0.945,0.017
				c-0.084-0.133-0.158-0.254-0.211-0.354c-1.57-2.978-3.298-5.744-5.335-8.432c-4.181-5.513-9.396-10.316-14.626-14.813
				c-11.137-9.573-24.009-16.671-37.142-23.102c-13.034-6.383-26.628-11.662-40.608-15.568c-14.959-4.18-30.293-7.014-45.873-5.741
				c-2.484,0.202-5.193,0.931-7.73,0.663c-0.455-0.897-0.912-1.795-1.463-2.641c-0.669-1.029-1.512-2.638-2.854-2.86
				c-1.218-0.202-1.536,1.71-1.635,2.487c-0.213,1.675,0.227,3.316,0.432,4.975c-5.855,3.076-10.759,7.628-15.826,11.836
				c-6.173,5.129-11.626,11.093-16.719,17.273c-5.23,6.348-10.07,13.029-14.551,19.922c-3.828,5.886-8.352,12.498-10.705,19.262
				c-2.808,0.006-6.355-0.402-6.808,2.164c-0.247,1.4,0.683,2.674,1.576,3.645c0.98,1.065,2.066,2.072,3.134,3.05
				c1.027,0.94,2.154,1.767,3.295,2.564c1.012,0.708,2.05,1.378,3.068,2.076c5.455,3.735,10.881,7.521,16.502,11.007
				c6.061,3.761,12.549,6.719,18.811,10.119c6.385,3.469,12.65,7.152,18.982,10.717c12.236,6.886,24.785,12.749,38.12,17.176
				c6.247,2.074,12.638,3.745,19.155,4.693c3.047,0.443,6.119,0.645,9.195,0.653c1.607,0.005,3.213-0.102,4.813-0.255
				c0.33-0.031,0.754-0.043,1.199-0.068c0.902,1.029,1.664,2.146,2.352,3.51c0.693,1.373,1.513,3.072,3.075,3.576
				c1.59,0.514,1.695-2.426,1.725-3.254c0.091-2.621-0.318-5.284-0.902-7.854c1.676-0.441,3.327-1.133,4.849-1.678
				c4.332-1.549,8.405-3.532,12.48-5.659c8.101-4.229,16.233-8.085,23.764-13.325c7.745-5.391,14.141-12.195,20.619-18.996
				c3.357-3.524,6.778-7.045,9.722-10.928c2.152-2.841,4.096-5.822,6.349-8.567c3.788,0.021,7.561,0.099,10.032-2.783
				C428.127,117.998,424.321,116.222,423.167,115.934z"/>
			<path style="fill:#1C1E1C;" d="M338.282,193.421c-0.163,0-0.333-0.028-0.505-0.084c-1.718-0.554-2.601-2.305-3.31-3.711
				l-0.058-0.115c-0.614-1.216-1.292-2.246-2.125-3.224l-0.209,0.011c-0.267,0.013-0.515,0.023-0.724,0.044
				c-1.831,0.175-3.342,0.257-4.753,0.257h-0.108c-3.208-0.009-6.326-0.23-9.266-0.658c-6.042-0.879-12.336-2.421-19.241-4.714
				c-12.498-4.149-24.996-9.779-38.207-17.215c-2.262-1.273-4.515-2.562-6.768-3.85c-3.986-2.279-8.107-4.636-12.208-6.863
				c-2.208-1.199-4.483-2.363-6.683-3.489c-4.039-2.066-8.215-4.202-12.152-6.645c-4.849-3.008-9.627-6.288-14.247-9.459
				l-2.274-1.56c-0.433-0.297-0.869-0.588-1.306-0.88c-0.592-0.395-1.184-0.791-1.767-1.199c-1.101-0.77-2.268-1.618-3.346-2.605
				c-1.109-1.015-2.185-2.015-3.165-3.08c-0.871-0.946-1.995-2.398-1.7-4.07c0.457-2.598,3.561-2.598,5.229-2.598
				c0.344,0,0.691,0.005,1.034,0.011c0.23,0.003,0.458,0.007,0.684,0.009c2.191-6.107,6.128-12.13,9.608-17.455l1.031-1.579
				c4.634-7.129,9.54-13.847,14.584-19.967c6.049-7.342,11.383-12.852,16.785-17.34c0.883-0.733,1.762-1.478,2.641-2.223
				c4.038-3.42,8.21-6.954,12.963-9.507c-0.045-0.319-0.097-0.638-0.148-0.957c-0.199-1.229-0.404-2.5-0.238-3.802
				c0.309-2.429,1.234-2.939,1.956-2.939c0.082,0,0.168,0.007,0.257,0.021c1.4,0.232,2.292,1.653,2.942,2.69l0.249,0.391
				c0.518,0.797,0.966,1.657,1.364,2.44c1.547,0.12,3.182-0.125,4.764-0.36c0.861-0.127,1.752-0.259,2.605-0.329
				c2.507-0.205,5.092-0.309,7.684-0.309c11.361,0,23.551,1.928,38.364,6.067c13.653,3.815,27.344,9.063,40.693,15.601
				c11.826,5.791,25.499,13.072,37.248,23.171c5.084,4.372,10.384,9.201,14.698,14.89c1.981,2.614,3.74,5.395,5.379,8.5
				c0.013,0.024,0.026,0.048,0.041,0.074c0.139-0.005,0.276-0.008,0.413-0.008l0.277,0.005c1.963,0.064,3.993,0.13,6.02,0.639
				c0.871,0.217,3.562,1.363,4.064,2.939c0.136,0.426,0.176,1.077-0.405,1.755c-2.347,2.736-5.708,2.962-9.235,2.962l-0.94-0.004
				c-1.302,1.601-2.523,3.312-3.707,4.967c-0.815,1.14-1.631,2.281-2.479,3.4c-2.732,3.605-5.907,6.934-8.978,10.152l-1.386,1.454
				c-6.167,6.477-12.545,13.174-20.091,18.426c-6.151,4.281-12.828,7.707-19.284,11.02c-1.51,0.773-3.022,1.55-4.533,2.339
				c-3.616,1.887-7.934,4.038-12.543,5.687c-0.414,0.148-0.838,0.308-1.27,0.47c-1.023,0.385-2.077,0.78-3.156,1.093
				c0.63,2.892,0.888,5.29,0.811,7.516C340.121,190.564,340.02,193.421,338.282,193.421z M332.718,185.263l0.161,0.183
				c0.962,1.098,1.732,2.246,2.423,3.614l0.058,0.116c0.658,1.305,1.404,2.784,2.724,3.21c0.074,0.023,0.14,0.035,0.198,0.035
				c0.182,0,0.78-0.204,0.874-2.831c0.078-2.255-0.205-4.709-0.891-7.726l-0.107-0.471l0.467-0.123
				c1.192-0.314,2.377-0.76,3.523-1.19c0.436-0.163,0.865-0.324,1.284-0.475c4.553-1.628,8.832-3.76,12.417-5.632
				c1.514-0.79,3.028-1.567,4.54-2.343c6.427-3.297,13.073-6.707,19.17-10.95c7.462-5.193,13.804-11.854,19.938-18.294l1.386-1.455
				c3.051-3.199,6.206-6.506,8.904-10.066c0.843-1.112,1.653-2.246,2.463-3.378c1.238-1.733,2.52-3.524,3.897-5.205l0.151-0.184
				l1.412,0.006c3.285,0,6.406-0.2,8.476-2.614c0.302-0.352,0.272-0.612,0.212-0.8c-0.328-1.029-2.499-2.06-3.353-2.273
				c-1.924-0.482-3.9-0.547-5.812-0.61l-0.243-0.004c-0.217,0-0.438,0.009-0.659,0.021l-0.293,0.015l-0.156-0.247
				c-0.092-0.145-0.172-0.278-0.23-0.387c-1.612-3.058-3.343-5.793-5.291-8.363c-4.258-5.614-9.511-10.4-14.554-14.735
				c-11.663-10.026-25.267-17.269-37.035-23.032c-13.295-6.511-26.929-11.738-40.523-15.536c-14.723-4.114-26.828-6.03-38.095-6.03
				c-2.565,0-5.123,0.103-7.603,0.306c-0.82,0.066-1.655,0.19-2.539,0.321c-1.734,0.257-3.549,0.523-5.284,0.34l-0.271-0.028
				l-0.123-0.243c-0.438-0.864-0.891-1.757-1.436-2.594l-0.257-0.405c-0.581-0.925-1.303-2.076-2.26-2.235c-0.002,0-0.005,0-0.008,0
				c-0.528,0-0.885,0.771-1.048,2.057c-0.148,1.16,0.038,2.305,0.233,3.517c0.072,0.444,0.143,0.888,0.198,1.334l0.043,0.343
				l-0.306,0.161c-4.784,2.513-9.007,6.09-13.09,9.549c-0.882,0.747-1.763,1.493-2.649,2.229
				c-5.353,4.447-10.644,9.915-16.652,17.206c-5.019,6.091-9.903,12.779-14.517,19.877l-1.032,1.581
				c-3.513,5.374-7.495,11.466-9.62,17.573l-0.117,0.334l-0.354,0.001c-0.002,0-0.004,0-0.007,0c-0.382,0-0.712-0.005-1.046-0.01
				c-0.338-0.005-0.679-0.01-1.019-0.01c-2.428,0-3.984,0.296-4.245,1.771c-0.218,1.235,0.724,2.429,1.452,3.219
				c0.953,1.037,2.012,2.02,3.104,3.02c1.036,0.948,2.171,1.773,3.244,2.523c0.577,0.404,1.163,0.796,1.749,1.187
				c0.44,0.294,0.879,0.587,1.315,0.886l2.274,1.561c4.611,3.165,9.378,6.438,14.209,9.434c3.902,2.421,8.059,4.548,12.08,6.605
				c2.206,1.128,4.487,2.295,6.706,3.5c4.11,2.232,8.236,4.592,12.227,6.874c2.251,1.287,4.502,2.574,6.762,3.847
				c13.155,7.402,25.596,13.008,38.033,17.137c6.849,2.274,13.086,3.803,19.069,4.673c2.894,0.421,5.964,0.64,9.125,0.648h0.105
				c1.379,0,2.859-0.08,4.658-0.253c0.223-0.021,0.487-0.033,0.772-0.047L332.718,185.263z"/>
		</g>
		<path style="opacity:0.5;fill:#1F6CF7;" d="M423.167,115.934c-1.948-0.488-3.918-0.559-5.916-0.624
			c-0.309-0.011-0.626,0-0.945,0.017c-0.084-0.133-0.158-0.254-0.211-0.354c-1.57-2.978-3.298-5.744-5.335-8.432
			c-1.592-2.099-3.335-4.094-5.17-6.01c0.414,2.118,0.597,4.324,0.48,6.635c-0.507,10.104-5.279,17.346-13.922,22.518
			c-5.392,3.227-14.575,5.371-14.932-3.781c-0.075-1.936,0.267-3.77,1.366-5.409c1.625-2.421,3.08-4.115-0.38-6.157
			c-4.497-2.654-8.426-4.693-10.689-9.625c-1.521-3.32-1.799-6.941-3.725-10.156c-1.68-2.805-3.682-5.383-6.117-7.578
			c-4.754-4.283-10.17-7.398-15.508-10.855c-6.646-4.306-13.789-7.289-21.162-10.107c-6.787-2.596-13.516-5.631-20.574-7.435
			c-12.03-3.073-28.575-2.861-39.859,3.094c-20.685,10.917-17.605,43.637-33.321,53.8c-6.104,3.947-20.581,5.779-21.991-5.098
			c-0.013-0.1-0.011-0.197-0.021-0.297c-1.486,2.669-2.816,5.398-3.775,8.156c-2.808,0.006-6.355-0.402-6.808,2.164
			c-0.247,1.4,0.683,2.674,1.576,3.645c0.98,1.065,2.066,2.072,3.134,3.05c1.027,0.94,2.154,1.767,3.295,2.564
			c1.012,0.708,2.05,1.378,3.068,2.076c5.455,3.735,10.881,7.521,16.502,11.007c6.061,3.761,12.549,6.719,18.811,10.119
			c6.385,3.469,12.65,7.152,18.982,10.717c12.236,6.886,24.785,12.749,38.12,17.176c6.247,2.074,12.638,3.745,19.155,4.693
			c3.047,0.443,6.119,0.645,9.195,0.653c1.607,0.005,3.213-0.102,4.813-0.255c0.33-0.031,0.754-0.043,1.199-0.068
			c0.902,1.029,1.664,2.146,2.352,3.51c0.693,1.373,1.513,3.072,3.075,3.576c1.59,0.514,1.695-2.426,1.725-3.254
			c0.091-2.621-0.318-5.284-0.902-7.854c1.676-0.441,3.327-1.133,4.849-1.678c4.332-1.549,8.405-3.532,12.48-5.659
			c8.101-4.229,16.233-8.085,23.764-13.325c7.745-5.391,14.141-12.195,20.619-18.996c3.357-3.524,6.778-7.045,9.722-10.928
			c2.152-2.841,4.096-5.822,6.349-8.567c3.788,0.021,7.561,0.099,10.032-2.783C428.127,117.998,424.321,116.222,423.167,115.934z"/>
		<path style="fill:#1F6CF7;" d="M426.492,117.879c-0.983,1.682-2.417,2.52-4.434,2.896c-3.519,0.657-5.978-0.467-9.364,1.971
			c-3.171,2.283-6.248,3.775-9.498,4.886c-14.887,6.622-28.185,14.267-40.598,24.995c-5.635,4.869-10.341,9.891-15.088,15.615
			c-3.438,4.147-7.084,9.453-11.93,12.087c-10.393,5.647-25.639,2.612-36.04-1.633c-2.544-1.038-8.791-3.192-7.75-7.159
			c0.597-2.27,2.265-3.926,4.417-4.885c3.105-1.384,8.494-3.137,7.414-6.586c-9.963,2.479-21.182-3.094-29.993-7.164
			c-6.7-3.096-13.315-6.55-19.261-10.955c-5.615-4.163-9.811-9.139-14.757-13.91c-1.483,2.832-2.854,5.749-4.553,8.143
			c-4.417,6.227-14.56,0.445-19.267-2.414c-3.676-2.234-7.143-4.699-11.083-6.439c-2.61-1.153-5.817-2.338-7.816-4.477
			c-1.145-1.227-1.591-2.56-1.513-3.755c-0.365,0.313-0.627,0.731-0.728,1.304c-0.247,1.4,0.683,2.674,1.576,3.645
			c0.98,1.065,2.066,2.072,3.134,3.05c1.027,0.94,2.154,1.767,3.295,2.564c1.012,0.708,2.05,1.378,3.068,2.076
			c5.455,3.735,10.881,7.521,16.502,11.007c6.061,3.761,12.549,6.719,18.811,10.119c6.385,3.469,12.65,7.152,18.982,10.717
			c12.236,6.886,24.785,12.749,38.12,17.176c6.247,2.074,12.638,3.745,19.155,4.693c3.047,0.443,6.119,0.645,9.195,0.653
			c1.607,0.005,3.213-0.102,4.813-0.255c0.33-0.031,0.754-0.043,1.199-0.068c0.902,1.029,1.664,2.146,2.352,3.51
			c0.693,1.373,1.513,3.072,3.075,3.576c1.59,0.514,1.695-2.426,1.725-3.254c0.091-2.621-0.318-5.284-0.902-7.854
			c1.676-0.441,3.327-1.133,4.849-1.678c4.332-1.549,8.405-3.532,12.48-5.659c8.101-4.229,16.233-8.085,23.764-13.325
			c7.745-5.391,14.141-12.195,20.619-18.996c3.357-3.524,6.778-7.045,9.722-10.928c2.152-2.841,4.096-5.822,6.349-8.567
			c3.788,0.021,7.561,0.099,10.032-2.783C427.147,119.141,426.984,118.47,426.492,117.879z"/>
		<path style="fill:#1C1E1C;" d="M404.948,126.561c-13.199,5.174-25.787,12.375-36.904,21.178
			c-5.406,4.281-10.548,8.885-15.268,13.916c-4.477,4.772-9.674,9.758-12.81,15.551c-0.199,0.365,0.179,0.694,0.515,0.694h0.078
			c0.308,0,0.438-0.227,0.424-0.465c2.981-5.414,7.847-9.952,11.966-14.495c4.773-5.264,10.139-9.961,15.684-14.392
			c11.001-8.79,23.576-15.919,36.676-21.054C405.909,127.258,405.547,126.326,404.948,126.561z"/>
		<path style="fill:#1C1E1C;" d="M387.292,127.598c-0.072-0.641-1.065-0.53-0.994,0.111c0.208,1.866-0.006,3.814-0.879,5.497
			c-0.297,0.572,0.623,0.964,0.92,0.395C387.287,131.773,387.516,129.623,387.292,127.598z"/>
		<path style="fill:#1C1E1C;" d="M391.239,113.406c-4.691,0.358-9.223,1.8-13.54,3.613c-0.595,0.25-0.235,1.184,0.359,0.934
			c4.243-1.783,8.681-3.201,13.292-3.553C391.995,114.352,391.881,113.357,391.239,113.406z"/>
		<path style="fill:#1C1E1C;" d="M228.533,118.408c-3.628-0.918-7.488-0.256-10.918,1.111c-0.601,0.239-0.239,1.172,0.359,0.934
			c3.286-1.311,6.938-1.936,10.414-1.055C229.012,119.557,229.153,118.565,228.533,118.408z"/>
		<g style="opacity:0.6;">
			<path style="fill:#FFFEFD;" d="M378.376,87.051c3.219,0,5.376-1.64,6.485-3.839c-4.153-2.801-8.454-5.379-12.843-7.809
				C369.531,79.907,371.65,87.051,378.376,87.051z"/>
			<path style="fill:#FFFEFD;" d="M333.376,165.568c-9.823,0-9.823,15.232,0,15.232C343.2,180.801,343.2,165.568,333.376,165.568z"
				/>
			<path style="fill:#FFFEFD;" d="M274.126,47.568c-9.823,0-9.823,15.233,0,15.233C283.95,62.801,283.95,47.568,274.126,47.568z"/>
			<path style="fill:#FFFEFD;" d="M230.376,99.318c-9.823,0-9.823,15.232,0,15.232C240.2,114.551,240.2,99.318,230.376,99.318z"/>
			<path style="fill:#FFFEFD;" d="M328.97,65.71c0.541-1.967,0.264-4.11-0.768-5.869c-0.997-1.703-2.647-2.977-4.551-3.5
				c-0.676-0.092-1.351-0.182-2.025-0.273c-0.815,0.003-1.594,0.14-2.344,0.384c-0.164,0.045-0.33,0.083-0.496,0.129
				c-2.56,0.707-4.615,2.758-5.319,5.319c-0.362,1.351-0.362,2.7,0,4.05c0.362,1.29,1.015,2.41,1.958,3.361
				c1.158,0.995,1.867,1.551,3.367,1.963c0.805,0.222,1.545,0.275,2.334,0.276c1.399,0.001,2.716-0.399,3.853-1.08
				c0.165-0.071,0.32-0.134,0.491-0.21c0.514-0.396,1.027-0.793,1.542-1.19C327.957,68.12,328.609,66.999,328.97,65.71z"/>
			<path style="fill:#FFFEFD;" d="M358.241,146.32c2.935,2.935,7.837,2.935,10.772,0c2.934-2.935,2.934-7.837,0-10.771l-0.25-0.25
				c-2.935-2.935-7.837-2.935-10.772,0c-2.935,2.935-2.935,7.837,0,10.771L358.241,146.32z"/>
			<path style="fill:#FFFEFD;" d="M365.626,113.051c4.152,0.046,7.616-3.499,7.616-7.616c0-2.158-0.925-4.098-2.385-5.481
				c-1.384-1.46-3.323-2.385-5.482-2.385c-4.117,0-7.662,3.464-7.616,7.616C357.808,109.599,361.212,113.003,365.626,113.051z"/>
			<path style="fill:#FFFEFD;" d="M406.626,108.568c-4.152,0-7.616,3.464-7.616,7.616v0.5c0,4.152,3.464,7.616,7.616,7.616
				c4.152,0,7.616-3.464,7.616-7.616v-0.5C414.243,112.032,410.779,108.568,406.626,108.568z"/>
			<path style="fill:#FFFEFD;" d="M208.243,122.435v-0.25c0-3.393-2.311-6.322-5.422-7.283c-0.5,1.117-0.97,2.238-1.362,3.365
				c-2.808,0.006-6.355-0.402-6.808,2.164c-0.247,1.4,0.683,2.674,1.576,3.645c0.979,1.065,2.066,2.072,3.134,3.05
				c1.027,0.94,2.154,1.767,3.295,2.564c0.025,0.018,0.051,0.034,0.076,0.052C205.885,128.81,208.243,125.858,208.243,122.435z"/>
			<path style="fill:#FFFEFD;" d="M284.626,166.568c-4.196,0-6.594,2.781-7.205,5.966c4.445,2.055,8.96,3.955,13.558,5.691
				C293.476,173.722,291.359,166.568,284.626,166.568z"/>
			<path style="fill:#FFFEFD;" d="M230.126,135.818c-4.768,0-7.215,3.589-7.354,7.282c-0.182-0.111-0.366-0.216-0.547-0.328
				c4.047,2.511,8.283,4.664,12.515,6.829c-0.015-0.008-0.03-0.016-0.046-0.023C239.583,145.759,238.064,135.818,230.126,135.818z"
				/>
			<path style="fill:#FFFEFD;" d="M234.321,70.425c-2.644,2.792-5.168,5.699-7.607,8.658c-0.342,0.414-0.665,0.843-1.003,1.26
				c0.009,0.058,0.022,0.113,0.028,0.171c1.078,2.911,3.888,5.037,7.137,5.037h0.25c4.152,0,7.616-3.464,7.616-7.616
				C240.743,74.188,237.921,71.013,234.321,70.425z"/>
		</g>
	</g>
	<g>
		<g>
			<path style="fill:#1F6CF7;" d="M330.808,232.877c-1.791-5.336-9.426-5.344-13.636-7.045c-4.637-1.873-8.182-10.43-11.632-14.156
				c-4.556-4.92-9.682-9.279-14.804-13.59c-13.916-11.711-29.547-21.355-45.287-30.393c-18.963-10.889-41.485-19.191-63.619-21.217
				c-2.775-0.254-5.539-0.244-8.319-0.145c-2.479,0.088-4.134-0.955-4.273-3.598c-0.078-1.482-0.079-2.729-0.761-4.073
				c-1.5-2.954-6.529-2.205-7.655,0.688c-0.792,2.033,0.853,4.756-1.038,6.305c-1.363,1.117-3.352,1.564-5.016,2.018
				c-9.074,2.461-17.743,6.378-25.948,10.932c-4.156,2.307-8.169,4.867-12.036,7.628c-2.422,1.729-8.279,8.339-11.007,8.636
				c-5.626,0.613-11.193,1.221-16.75,2.627c-7.323,1.854-14.472,4.369-21.399,7.372c-13.1,5.679-25.637,13.411-35.344,23.997
				c-0.895,0.975-1.6,2.01-2.351,3.09c-1.414,2.031-2.754,1.092-4.035-0.432c-1.105-1.316-2.672-3.05-4.59-2.938
				c-3.748,0.218-3.701,5.936-2.248,8.359c1.217,2.028,3.883,2.549,5.208,4.586c0.761,1.168,1.296,2.363,1.848,3.541
				c2.615,9.275,12.612,18.123,19.335,24.601c10.741,10.351,22.898,19.074,34.8,28.015c11.935,8.965,24.019,17.824,37.222,24.857
				c14.197,7.561,27.738,16.587,43.777,19.698c1.063,0.206,2.124,0.424,3.203,0.524c0.727,0.067,1.395,0.134,2.104,0.347
				c1.785,0.537,1.318,2.736,1.217,4.002c-0.1,1.238-0.242,3.91,1.197,4.559c2.041,0.922,3.941-0.363,5.449-1.721
				c2.295-2.066,1.052-5.051,1.998-7.633c0.386-1.055,1.071-1.898,1.921-2.597c1.449-0.855,3.126-1.438,4.692-1.87
				c22.994-6.351,43.919-18.426,64.9-29.449c12.579-6.609,24.81-13.897,36.526-21.938c10.434-7.162,25.189-15.548,31.755-26.739
				c1.412-2.404,2.506-3.922,5.594-3.734C323.531,236.096,332.213,237.064,330.808,232.877z"/>
			<path style="fill:#1C1E1C;" d="M170.386,332.483c-0.553,0-1.099-0.119-1.623-0.355c-1.83-0.825-1.574-4.009-1.49-5.055
				c0.012-0.148,0.029-0.309,0.046-0.478c0.157-1.501,0.189-2.675-0.909-3.006c-0.683-0.205-1.355-0.267-2.006-0.327
				c-1.007-0.094-2.004-0.288-2.967-0.477l-0.285-0.055c-12.906-2.504-24.366-8.904-35.45-15.093
				c-2.767-1.546-5.628-3.144-8.467-4.655c-13.145-7.001-25.139-15.772-37.287-24.898c-1.569-1.179-3.144-2.354-4.718-3.529
				c-10.217-7.629-20.781-15.518-30.128-24.524c-0.614-0.592-1.256-1.204-1.917-1.834c-6.745-6.43-15.139-14.433-17.553-22.991
				l-0.128-0.258c-0.485-1.041-0.988-2.117-1.658-3.146c-0.596-0.916-1.502-1.503-2.46-2.125c-1.024-0.663-2.082-1.35-2.758-2.477
				c-1.053-1.757-1.429-5.06-0.309-7.178c0.63-1.192,1.652-1.862,2.957-1.938c2.257-0.132,4.057,1.99,5.001,3.115
				c0.512,0.608,1.272,1.418,1.953,1.418c0.416,0,0.85-0.32,1.289-0.951l0.142-0.203c0.715-1.029,1.391-2.001,2.252-2.938
				c8.809-9.607,20.757-17.722,35.513-24.118c7.22-3.13,14.445-5.618,21.475-7.397c5.594-1.416,11.3-2.038,16.818-2.64
				c1.664-0.181,5.004-3.317,7.444-5.608c1.342-1.26,2.502-2.349,3.326-2.938c3.975-2.837,8.04-5.414,12.084-7.658
				c9.27-5.145,17.794-8.735,26.06-10.977l0.507-0.137c1.49-0.397,3.179-0.848,4.323-1.785c0.913-0.748,0.814-1.866,0.699-3.16
				c-0.087-0.982-0.177-1.999,0.19-2.939c0.662-1.701,2.607-2.888,4.729-2.888c1.718,0,3.153,0.806,3.838,2.155
				c0.669,1.321,0.73,2.567,0.795,3.887l0.02,0.387c0.111,2.106,1.253,3.129,3.491,3.129l0.266-0.004
				c1.117-0.04,2.232-0.066,3.346-0.066c1.831,0,3.479,0.069,5.037,0.212c20.529,1.878,43.195,9.436,63.823,21.281
				c14.296,8.209,30.864,18.245,45.36,30.443c5.516,4.642,10.439,8.871,14.849,13.633c1.266,1.367,2.518,3.328,3.843,5.403
				c2.241,3.509,4.781,7.486,7.609,8.629c1.111,0.449,2.486,0.781,3.941,1.132c4.026,0.972,8.589,2.072,9.981,6.218
				c0.301,0.897,0.225,1.672-0.228,2.301c-0.795,1.105-2.681,1.642-5.765,1.642c-1.215,0-2.319-0.083-3.049-0.138l-0.465-0.033
				c-2.69-0.163-3.645,0.955-5.132,3.488c-5.538,9.438-16.635,16.769-26.427,23.236c-1.906,1.259-3.75,2.478-5.476,3.662
				c-11.341,7.784-23.647,15.175-36.577,21.969c-2.87,1.508-5.738,3.035-8.611,4.565c-17.938,9.551-36.487,19.427-56.388,24.924
				c-1.882,0.519-3.377,1.114-4.572,1.818c-0.8,0.665-1.378,1.444-1.705,2.338c-0.335,0.912-0.374,1.881-0.415,2.906
				c-0.07,1.725-0.143,3.508-1.718,4.927C173.635,331.329,172.129,332.483,170.386,332.483z M21.484,209.079l-0.148,0.004
				c-0.95,0.056-1.667,0.528-2.131,1.407c-0.948,1.792-0.612,4.704,0.283,6.196c0.557,0.928,1.474,1.521,2.444,2.151
				c1.004,0.651,2.042,1.324,2.754,2.419c0.708,1.087,1.226,2.196,1.726,3.269l0.155,0.333c2.368,8.371,10.652,16.27,17.309,22.615
				c0.662,0.631,1.305,1.244,1.92,1.837c9.302,8.964,19.841,16.833,30.033,24.443c1.575,1.177,3.15,2.353,4.72,3.532
				c12.116,9.101,24.075,17.847,37.156,24.814c2.848,1.517,5.713,3.117,8.485,4.665c11.015,6.15,22.404,12.511,35.153,14.983
				l0.286,0.056c0.939,0.184,1.911,0.373,2.869,0.462c0.699,0.065,1.422,0.132,2.201,0.366c1.977,0.595,1.751,2.768,1.615,4.066
				c-0.017,0.161-0.033,0.314-0.044,0.454c-0.188,2.341,0.116,3.708,0.904,4.063c0.399,0.181,0.795,0.268,1.211,0.268
				c1.419,0,2.79-1.086,3.698-1.903c1.263-1.138,1.321-2.568,1.388-4.224c0.043-1.058,0.087-2.151,0.476-3.21
				c0.389-1.066,1.067-1.985,2.073-2.812c1.334-0.793,2.909-1.422,4.876-1.966c19.795-5.467,38.295-15.316,56.185-24.842
				c2.874-1.531,5.745-3.059,8.616-4.567c12.896-6.775,25.168-14.146,36.476-21.908c1.73-1.188,3.58-2.409,5.491-3.672
				c9.701-6.408,20.696-13.671,26.116-22.908c1.454-2.476,2.703-4.176,6.055-3.98l0.48,0.034c0.715,0.054,1.796,0.135,2.974,0.135
				c3.365,0,4.551-0.666,4.954-1.225c0.257-0.358,0.287-0.816,0.091-1.398c-1.215-3.622-5.493-4.653-9.267-5.564
				c-1.492-0.36-2.902-0.7-4.082-1.177c-3.125-1.263-5.642-5.205-8.077-9.019c-1.301-2.037-2.529-3.96-3.734-5.262
				c-4.37-4.72-9.27-8.928-14.759-13.547c-14.436-12.148-30.957-22.155-45.214-30.342c-20.506-11.775-43.027-19.287-63.416-21.152
				c-1.528-0.141-3.145-0.208-4.946-0.208c-1.102,0-2.205,0.025-3.31,0.064c-2.92,0.12-4.647-1.347-4.791-4.07l-0.02-0.391
				c-0.062-1.262-0.115-2.353-0.688-3.483c-0.519-1.021-1.593-1.607-2.946-1.607c-1.72,0-3.281,0.926-3.797,2.251
				c-0.281,0.723-0.206,1.58-0.125,2.489c0.122,1.378,0.26,2.939-1.062,4.021c-1.311,1.074-3.111,1.555-4.699,1.979l-0.502,0.135
				c-8.187,2.22-16.638,5.781-25.837,10.886c-4.011,2.227-8.045,4.782-11.988,7.599c-0.77,0.549-1.962,1.668-3.223,2.852
				c-2.824,2.652-6.024,5.656-8.02,5.874c-5.484,0.598-11.155,1.216-16.682,2.614c-6.978,1.767-14.152,4.238-21.323,7.347
				c-14.626,6.34-26.46,14.373-35.174,23.876c-0.815,0.889-1.472,1.833-2.168,2.833l-0.142,0.205
				c-0.637,0.914-1.347,1.379-2.109,1.379c-1.087,0-2.024-0.948-2.719-1.774C24.703,210.877,23.193,209.079,21.484,209.079z"/>
		</g>
		<path style="fill:#1F6CF7;" d="M169.238,142.734c-0.073-1.388-0.086-2.57-0.646-3.819c0.026,0.163,0.055,0.326,0.055,0.487
			c0,0.471-0.093,0.891-0.241,1.271c-0.283,1.693-0.953,3.82-2.244,4.367c1.646,0.125,3.23,0.484,4.81,0.912
			c0.037-0.013,0.072-0.029,0.109-0.041C169.995,145.392,169.325,144.371,169.238,142.734z"/>
		<path style="fill:#1F6CF7;" d="M164.719,145.012c-1.658-0.661-2.966-2.113-3.654-3.799c-0.172-0.234-0.332-0.48-0.463-0.755
			c-0.105,1.833,0.745,3.915-0.818,5.196c-0.159,0.131-0.329,0.25-0.504,0.363c0.693-0.08,1.367-0.121,2.028-0.133
			c0.405-0.152,0.792-0.312,1.097-0.398c0.758-0.214,1.552-0.397,2.348-0.465C164.741,145.017,164.731,145.016,164.719,145.012z"/>
		<path style="opacity:0.5;fill:#1F6CF7;" d="M330.808,232.877c-1.791-5.336-9.426-5.344-13.636-7.045
			c-4.637-1.873-8.182-10.43-11.632-14.156c-4.556-4.92-9.682-9.279-14.804-13.59c-13.916-11.711-29.547-21.355-45.287-30.393
			c-0.76-0.436-1.535-0.861-2.307-1.289c4.943,6.138,8.656,13.208,11.809,20.453c6.989,16.064,8.328,35.451,0.943,51.635
			c-8.023,17.582-24.709,27.89-43.552,30.318c-13.195,1.702-26.515,0.5-39.606-1.516c-12.762-1.966-25.754-4.107-37.958-8.447
			c-21.386-7.604-47.53-26.254-41.774-52.291c2.613-11.823,9.498-22.275,17.763-30.961c6.89-7.239,14.896-14.619,23.653-19.564
			c1.29-0.729,3.117-1.759,5.27-2.885c-3.705,1.661-7.333,3.494-10.87,5.457c-4.156,2.307-8.169,4.867-12.036,7.628
			c-2.422,1.729-8.279,8.339-11.007,8.636c-5.626,0.613-11.193,1.221-16.75,2.627c-7.323,1.854-14.472,4.369-21.399,7.372
			c-13.1,5.679-25.637,13.411-35.344,23.997c-0.895,0.975-1.6,2.01-2.351,3.09c-1.414,2.031-2.754,1.092-4.035-0.432
			c-1.105-1.316-2.672-3.05-4.59-2.938c-3.748,0.218-3.701,5.936-2.248,8.359c1.217,2.028,3.883,2.549,5.208,4.586
			c0.761,1.168,1.296,2.363,1.848,3.541c2.615,9.275,12.612,18.123,19.335,24.601c10.741,10.351,22.898,19.074,34.8,28.015
			c11.935,8.965,24.019,17.824,37.222,24.857c14.197,7.561,27.738,16.587,43.777,19.698c1.063,0.206,2.124,0.424,3.203,0.524
			c0.727,0.067,1.395,0.134,2.104,0.347c1.785,0.537,1.318,2.736,1.217,4.002c-0.1,1.238-0.242,3.91,1.197,4.559
			c2.041,0.922,3.941-0.363,5.449-1.721c2.295-2.066,1.052-5.051,1.998-7.633c0.386-1.055,1.071-1.898,1.921-2.597
			c1.449-0.855,3.126-1.438,4.692-1.87c22.994-6.351,43.919-18.426,64.9-29.449c12.579-6.609,24.81-13.897,36.526-21.938
			c10.434-7.162,25.189-15.548,31.755-26.739c1.412-2.404,2.506-3.922,5.594-3.734C323.531,236.096,332.213,237.064,330.808,232.877
			z M190.206,301.897c-21.29,10.441-45.216,4.924-65.431-5.548c-12.391-6.419-23.952-14.552-34.237-23.983
			C78.836,261.636,66.875,251.34,55.93,239.81c-7.101-7.482-14.353-17.499-10.033-28.249c3.501-8.713,11.678-14.802,19.598-19.289
			c4.357-2.469,8.894-4.617,13.547-6.469c4.105-1.635,8.622-3.641,12.963-4.521c4.938-0.994-0.988,4.688-2.001,5.739
			c-4.112,4.273-7.482,9.317-9.722,14.812c-1.342,3.289-2.34,6.781-2.877,10.297c-1.614,10.568-0.103,24.301,8.29,31.883
			c8.733,7.891,21.505,9.721,32.285,13.471c15.646,5.443,31.874,9.365,48.067,12.793c6.475,1.37,13.107,2.611,19.205,5.272
			c5.031,2.197,10.818,5.551,13.609,10.51C202.936,293.296,196.266,298.924,190.206,301.897z"/>
		<path style="opacity:0.5;fill:#1F6CF7;" d="M48.102,247.443c-4.213-5.061-8.436-10.245-11.707-15.981
			c-2.631-4.612-5.157-9.968-4.961-15.414c0.118-3.291,1.082-6.28,2.577-9.005c-0.585,0.598-1.161,1.203-1.728,1.82
			c-0.895,0.975-1.6,2.01-2.351,3.09c-1.414,2.031-2.754,1.092-4.035-0.432c-0.879-1.047-2.053-2.341-3.459-2.777
			c2.258,1.842,3.651,5.273,0.566,7.059c-1.725,0.998-3.551,0.189-4.736-1.178c0.149,0.889,0.425,1.708,0.791,2.318
			c1.217,2.028,3.883,2.549,5.208,4.586c0.761,1.168,1.296,2.363,1.848,3.541c2.615,9.275,12.612,18.123,19.335,24.601
			c5.016,4.833,10.347,9.306,15.811,13.616C56.828,258.053,52.499,252.725,48.102,247.443z"/>
		<path style="opacity:0.5;fill:#1F6CF7;" d="M320.016,232.906c-2.031-2.139-0.753-4.906,1.553-5.826
			c-1.604-0.389-3.151-0.744-4.396-1.248c-4.637-1.873-8.182-10.43-11.632-14.156c-4.556-4.92-9.682-9.279-14.804-13.59
			c-0.996-0.838-2.018-1.643-3.03-2.459c4.977,7.025,8.911,15.041,9.579,23.67c0.861,11.095-3.977,20.955-11.773,28.632
			c-10.768,10.601-22.777,19.856-35.406,28.13c-12.861,8.426-26.279,15.949-39.813,23.231c-13.716,7.38-28.326,14.489-44.023,16.204
			c-9.93,1.086-19.597-0.111-29.143-2.224c7.648,3.93,15.524,7.302,24.121,8.97c1.063,0.206,2.124,0.424,3.203,0.524
			c0.727,0.067,1.395,0.134,2.104,0.347c1.785,0.537,1.318,2.736,1.217,4.002c-0.1,1.238-0.242,3.91,1.197,4.559
			c0.004,0.002,0.008,0.002,0.012,0.004c-0.225-0.514-0.398-0.988-0.504-1.344c-0.774-2.621,1.757-7.148,4.877-5.988
			c1.594,0.592,2.268,2.002,2.327,3.529c0.479-1.748,0.073-3.749,0.735-5.555c0.386-1.055,1.071-1.898,1.921-2.597
			c1.449-0.855,3.126-1.438,4.692-1.87c22.994-6.351,43.919-18.426,64.9-29.449c12.579-6.609,24.81-13.897,36.526-21.938
			c10.434-7.162,25.189-15.548,31.755-26.739c1.412-2.404,2.506-3.922,5.594-3.734c0.797,0.049,3.078,0.281,5.164,0.104
			C324.349,235.826,321.687,234.666,320.016,232.906z"/>
		<g style="opacity:0.6;">
			<path style="fill:#FFFEFD;" d="M37.46,223.754c-4.538,0-4.538-7.037,0-7.037S41.999,223.754,37.46,223.754z"/>
			<path style="fill:#FFFEFD;" d="M65.127,200.087c-4.538,0-4.538-7.037,0-7.037C69.665,193.05,69.665,200.087,65.127,200.087z"/>
			<path style="fill:#FFFEFD;" d="M73.46,263.421c-4.538,0-4.538-7.037,0-7.037C77.998,256.384,77.998,263.421,73.46,263.421z"/>
			<path style="fill:#FFFEFD;" d="M75.127,221.754c-4.538,0-4.538-7.037,0-7.037C79.665,214.717,79.665,221.754,75.127,221.754z"/>
			<path style="fill:#FFFEFD;" d="M105.46,271.087c-4.538,0-4.538-7.037,0-7.037C109.998,264.05,109.998,271.087,105.46,271.087z"/>
			<path style="fill:#FFFEFD;" d="M115.435,214.058c-0.501-1.501,0.181-3.057,1.204-4.144c1.314-1.396,3.651-1.324,4.977,0
				c0.42,0.42,0.689,0.917,0.848,1.439c0.424,0.572,0.683,1.27,0.683,2.049c0,1.873-1.6,3.578-3.518,3.519
				C117.704,216.862,116.069,215.959,115.435,214.058z"/>
			<path style="fill:#FFFEFD;" d="M122.127,295.754c-4.538,0-4.538-7.037,0-7.037C126.665,288.717,126.665,295.754,122.127,295.754z
				"/>
			<path style="fill:#FFFEFD;" d="M127.963,184.966c-0.17,0.531-0.449,1.025-0.848,1.425c-1.26,1.26-3.754,1.48-4.977,0
				c-0.502-0.608-0.946-1.154-1.111-1.951c-0.199-0.965-0.163-2.094,0.405-2.947c0.909-1.367,2.079-1.965,3.694-2.108
				c1.914-0.17,3.519,1.729,3.519,3.518C128.646,183.648,128.397,184.368,127.963,184.966z"/>
			<path style="fill:#FFFEFD;" d="M167.059,177.573c1.369-0.989,3.329-0.887,4.557,0.341c1.353,1.354,1.357,3.623,0,4.977
				c-0.992,0.988-2.066,1.526-3.488,1.53c-1.918,0.006-3.519-1.604-3.519-3.519C164.609,179.355,165.653,178.037,167.059,177.573z"
				/>
			<path style="fill:#FFFEFD;" d="M157.139,153.414c1.334-1.378,3.637-1.339,4.977,0c0.73,0.73,1.049,1.701,0.998,2.658
				c0.01,0.11,0.032,0.219,0.032,0.33c0,0.93-0.374,1.831-1.03,2.488c-0.602,0.602-1.608,1.121-2.488,1.03
				c-1.026-0.106-1.924-0.326-2.671-1.074c-0.722-0.722-0.992-1.591-1.069-2.595C155.808,155.209,156.442,154.135,157.139,153.414z"
				/>
			<path style="fill:#FFFEFD;" d="M135.411,253.828c-0.059,0.039-0.117,0.08-0.174,0.113c-0.813,0.476-1.804,0.604-2.712,0.354
				c-0.88-0.241-1.642-0.83-2.103-1.617c-0.527-0.898-0.489-1.724-0.355-2.711c0.128-0.938,0.977-2,1.826-2.395
				c0.739-0.346,1.414-0.519,2.234-0.522c1.918-0.011,3.519,1.608,3.519,3.518C137.646,252.041,136.708,253.306,135.411,253.828z"/>
			<path style="fill:#FFFEFD;" d="M156.116,207.891c-0.177,0.177-0.361,0.324-0.553,0.447c-0.123,0.191-0.27,0.376-0.447,0.553
				c-0.657,0.656-1.559,1.03-2.488,1.03c-1.79,0-3.688-1.604-3.519-3.519c0.1-1.13,0.439-2.477,1.396-3.225
				c0.35-0.273,0.668-0.594,1.077-0.768c0.825-0.35,1.128-0.445,2.046-0.526c1.914-0.169,3.519,1.729,3.519,3.518
				C157.146,206.332,156.772,207.233,156.116,207.891z"/>
			<path style="fill:#FFFEFD;" d="M161.794,273.717c4.538,0,4.538,7.037,0,7.037S157.256,273.717,161.794,273.717z"/>
			<path style="fill:#FFFEFD;" d="M166.46,314.754c-4.538,0-4.538-7.037,0-7.037S170.999,314.754,166.46,314.754z"/>
			<path style="fill:#FFFEFD;" d="M171.627,238.921h-0.5c-1.918,0-3.519-1.601-3.519-3.519c0-1.918,1.601-3.518,3.519-3.518h0.5
				c1.918,0,3.519,1.601,3.519,3.518C175.146,237.32,173.545,238.921,171.627,238.921z"/>
			<path style="fill:#FFFEFD;" d="M196.667,195.678c-0.605,1.141-1.617,2.119-2.898,2.439c-1.543,0.387-3-0.166-4.129-1.227
				c-1.397-1.314-1.324-3.652,0-4.977c0.596-0.596,1.342-0.906,2.109-0.98c1.087-0.661,2.539-0.724,3.654-0.07
				C197.107,191.861,197.565,193.984,196.667,195.678z"/>
			<path style="fill:#FFFEFD;" d="M201.127,220.421c-4.538,0-4.538-7.037,0-7.037S205.665,220.421,201.127,220.421z"/>
			<path style="fill:#FFFEFD;" d="M208.127,159.884c4.538,0,4.538,7.037,0,7.037S203.589,159.884,208.127,159.884z"/>
			<path style="fill:#FFFEFD;" d="M210.794,291.754c-4.538,0-4.538-7.037,0-7.037S215.333,291.754,210.794,291.754z"/>
			<path style="fill:#FFFEFD;" d="M218.282,258.724c-0.084,0.083-0.166,0.167-0.25,0.249c-3.211,3.213-8.188-1.764-4.977-4.975
				c0.084-0.083,0.167-0.167,0.25-0.25C216.517,250.535,221.493,255.512,218.282,258.724z"/>
			<path style="fill:#FFFEFD;" d="M229.949,221.057c-0.111,0.111-0.222,0.223-0.333,0.334c-1.354,1.357-3.622,1.354-4.977,0
				c-1.357-1.357-1.354-3.619,0-4.977c0.111-0.111,0.223-0.223,0.333-0.334c1.354-1.357,3.622-1.354,4.977,0
				C231.305,217.438,231.302,219.699,229.949,221.057z"/>
			<path style="fill:#FFFEFD;" d="M231.627,190.921h-0.5c-1.918,0-3.519-1.601-3.519-3.519c0-1.918,1.601-3.518,3.519-3.518h0.5
				c1.918,0,3.519,1.601,3.519,3.518C235.146,189.32,233.545,190.921,231.627,190.921z"/>
			<path style="fill:#FFFEFD;" d="M258.46,228.05c4.538,0,4.538,7.037,0,7.037C253.922,235.087,253.922,228.05,258.46,228.05z"/>
			<path style="fill:#FFFEFD;" d="M259.46,269.754c-4.538,0-4.538-7.037,0-7.037C263.999,262.717,263.999,269.754,259.46,269.754z"
				/>
			<path style="fill:#FFFEFD;" d="M279.627,203.921c-0.656-0.034-1.256-0.149-1.869-0.354c-0.319-0.106-0.639-0.221-0.973-0.267
				c0.043,0.006,0.086,0.012,0.128,0.018c-1.583-0.373-2.805-1.674-2.805-3.416c0-1.84,1.602-3.621,3.519-3.518
				c0.656,0.034,1.256,0.149,1.869,0.354c0.319,0.106,0.639,0.221,0.973,0.267c-0.043-0.006-0.086-0.012-0.128-0.018
				c1.583,0.373,2.805,1.674,2.805,3.416C283.146,202.242,281.544,204.023,279.627,203.921z"/>
			<path style="fill:#FFFEFD;" d="M306.46,238.421c-4.538,0-4.538-7.037,0-7.037C310.999,231.384,310.999,238.421,306.46,238.421z"
				/>
		</g>
		<path style="fill:#1C1E1C;" d="M105.445,174.452c-3.291,2.328-6.38,4.918-9.42,7.59c-3.942,3.464-7.756,7.07-10.702,11.441
			c-0.358,0.531,0.421,1.16,0.781,0.625c3.063-4.544,7.06-8.227,11.153-11.824c2.812-2.472,5.697-4.84,8.744-6.993
			C105.808,175.017,105.624,174.735,105.445,174.452z"/>
		<path style="fill:#1C1E1C;" d="M218.198,267.185c-9.453,4.083-21.045,3-31.08,2.697c-11.889-0.359-23.737-1.801-35.402-4.096
			c-23.67-4.656-46.784-13.227-67.275-26.025c-0.541-0.338-1.171,0.439-0.625,0.781c20.691,12.924,43.884,21.441,67.755,26.233
			c11.933,2.396,24.073,3.753,36.235,4.12c9.982,0.303,21.361,1.278,30.752-2.777C219.149,267.863,218.79,266.93,218.198,267.185z"
			/>
	</g>
	<g>
		<path style="fill:#E6007E;" d="M293.521,191.93c-0.964-4.592-2.931-8.842-5.182-12.928c-2.109-3.83-4.628-7.557-7.69-10.691
			c-3.623-3.708-8.09-6.47-12.385-9.328c-8.367-5.57-17.613-8.996-27.314-11.449c-10.399-2.631-20.847-4.652-31.617-4.501
			c-0.138-0.046-0.296-0.034-0.431,0.036c-0.116,0.045-0.19,0.132-0.227,0.238c-0.005,0.011-0.011,0.02-0.014,0.031
			c-0.005,0.02-0.007,0.04-0.009,0.061c-0.011,0.046-0.024,0.09-0.021,0.143c0.229,4.473,0.143,8.935-0.498,13.372
			c-0.049,0.345,0.232,0.571,0.551,0.569c4.896-0.025,9.784-0.4,14.68-0.477c4.243,1.75,8.3,3.896,12.34,6.089
			c5.438,2.952,10.933,5.802,16.35,8.792c5.621,3.102,11.029,6.557,16.269,10.266c1.658,1.174,3.469,2.236,5.19,3.4
			c0.349,3.711,0.492,7.431,0.617,11.155c0.049,1.455,0.134,2.649,1.8,3.064c2.617,0.652,5.658,0.452,8.344,0.527
			c3.051,0.086,6.113,0.123,9.136,0.58c0.229,0.18,0.626,0.186,0.802-0.154C295.452,198.338,294.034,194.372,293.521,191.93z"/>
		<path style="fill:#1D1E1C;" d="M293.765,201.501L293.765,201.501c-0.189,0-0.375-0.051-0.538-0.144
			c-2.643-0.391-5.37-0.463-8.009-0.533l-0.958-0.025c-0.652-0.018-1.327-0.02-2.01-0.022c-2.165-0.006-4.404-0.013-6.44-0.52
			c-2.077-0.517-2.133-2.189-2.178-3.532c-0.124-3.672-0.262-7.27-0.594-10.89c-0.676-0.452-1.365-0.891-2.052-1.328
			c-0.982-0.625-1.999-1.272-2.952-1.946c-5.542-3.923-10.848-7.271-16.222-10.236c-3.133-1.729-6.346-3.44-9.453-5.096
			c-2.301-1.225-4.602-2.451-6.894-3.694c-3.836-2.083-7.936-4.263-12.196-6.027c-2.216,0.037-4.468,0.135-6.648,0.23
			c-2.598,0.113-5.284,0.231-7.934,0.245c-0.328,0-0.625-0.131-0.824-0.359c-0.186-0.214-0.266-0.491-0.225-0.78
			c0.583-4.041,0.745-8.383,0.494-13.276c-0.006-0.117,0.017-0.21,0.03-0.266c0.029-0.14,0.048-0.182,0.063-0.212
			c0.063-0.197,0.247-0.39,0.496-0.486c0.146-0.082,0.436-0.126,0.674-0.071c11.599-0.163,22.551,2.208,31.676,4.517
			c11.186,2.829,19.915,6.489,27.469,11.519l1.584,1.048c3.768,2.485,7.665,5.056,10.881,8.347c2.812,2.879,5.354,6.411,7.771,10.8
			c1.873,3.4,4.161,7.958,5.233,13.066c0.095,0.453,0.222,0.96,0.357,1.5c0.616,2.46,1.382,5.521,0.288,7.628
			C294.479,201.296,294.146,201.501,293.765,201.501z M223.459,156.504l0.095,0.039c4.341,1.79,8.5,4.001,12.388,6.112
			c2.289,1.242,4.587,2.467,6.886,3.69c3.11,1.657,6.327,3.371,9.466,5.104c5.407,2.982,10.744,6.351,16.317,10.295
			c0.933,0.66,1.938,1.301,2.911,1.919c0.761,0.484,1.524,0.971,2.271,1.476l0.195,0.132l0.022,0.235
			c0.35,3.728,0.492,7.418,0.619,11.186c0.05,1.485,0.136,2.275,1.421,2.595c1.919,0.479,4.096,0.484,6.202,0.49
			c0.692,0.002,1.375,0.004,2.036,0.022l0.956,0.026c2.706,0.071,5.503,0.146,8.24,0.56l0.13,0.02l0.151,0.097
			c0.004,0,0.006,0,0.006,0c0.917-1.776,0.201-4.635-0.374-6.932c-0.138-0.553-0.268-1.072-0.366-1.537
			c-1.045-4.979-3.291-9.45-5.13-12.789c-2.373-4.309-4.862-7.771-7.61-10.583c-3.142-3.215-6.993-5.755-10.717-8.212l-1.587-1.05
			c-7.458-4.965-16.088-8.581-27.16-11.381c-9.081-2.297-19.986-4.639-31.488-4.485l-0.084,0.001l-0.081-0.027
			c0.211,4.967,0.046,9.374-0.546,13.478c2.684-0.016,5.36-0.133,7.949-0.246c2.22-0.097,4.516-0.197,6.779-0.232L223.459,156.504z"
			/>
	</g>
	<path style="fill:#D36F9B;" d="M245.177,154.251c0.341,1.541-0.021,3.08,0.115,4.625c0.244,2.759,2.075,5.215,4.57,6.428
		c4.107,1.996,7.896,0.955,12.145,0.131c7.054-1.367,14.286,1.85,20.359,5.355c0.328,0.19,0.641,0.408,0.963,0.609
		c-0.85-1.072-1.73-2.116-2.681-3.089c-3.623-3.708-8.09-6.47-12.385-9.328c-8.367-5.57-17.613-8.996-27.314-11.449
		c-0.471-0.119-0.942-0.23-1.413-0.346C242.219,148.755,244.418,150.822,245.177,154.251z"/>
	<path style="fill:#D36F9B;" d="M276.626,188.692c-1.123-4.021-2.986-7.627-4.383-11.5c-3.326,0.824-7.689-1.254-10.594-2.387
		c-4.377-1.707-8.515-3.826-12.475-6.354c-4.652-2.971-11.783-5.581-13.227-11.554c-3.344-0.65-6.738-0.971-10.16-1.186
		c-3.662-0.23-7.746-0.053-11.299-1.092c-2.928-0.857-4.597-3.18-5.767-5.9c-0.031,2.738-0.196,5.471-0.59,8.193
		c-0.049,0.345,0.232,0.571,0.551,0.569c4.896-0.025,9.784-0.4,14.68-0.477c4.243,1.75,8.3,3.896,12.34,6.089
		c5.438,2.952,10.933,5.802,16.35,8.792c5.621,3.102,11.029,6.557,16.269,10.266c1.658,1.174,3.469,2.236,5.19,3.4
		c0.349,3.711,0.492,7.431,0.617,11.155c0.049,1.455,0.134,2.649,1.8,3.064c2.617,0.652,5.658,0.452,8.344,0.527
		c0.409,0.012,0.817,0.023,1.228,0.034c-1.441-0.564-2.781-1.332-3.953-2.359C278.728,195.499,277.615,192.233,276.626,188.692z"/>
	<g>
		<path style="fill:#F9D8B7;" d="M252.231,157.068c-1.432,1.326-3.304,3.34-3.048,5.496c0.302,2.543,3.148,3.195,5.308,3.21
			c5.48,0.036,10.639-2.577,15.041-5.954c-0.424-0.279-0.847-0.558-1.268-0.838c-3.201-2.131-6.533-3.943-9.967-5.513
			C256.256,154.611,253.98,155.45,252.231,157.068z"/>
		<path d="M254.604,166.275c0,0-0.001,0-0.001,0l-0.116-0.001c-3.364-0.022-5.532-1.388-5.801-3.651
			c-0.283-2.385,1.693-4.521,3.205-5.922c1.299-1.202,2.867-1.986,4.383-2.744c0.6-0.301,1.199-0.6,1.779-0.924l0.221-0.124
			l0.231,0.105c3.643,1.665,6.925,3.48,10.036,5.552l1.853,1.223l-0.558,0.428C264.596,164.236,259.471,166.275,254.604,166.275z
			 M258.318,154.029c-0.523,0.285-1.059,0.554-1.597,0.822c-1.454,0.727-2.957,1.479-4.151,2.584
			c-1.351,1.251-3.12,3.138-2.891,5.069c0.294,2.472,3.464,2.761,4.814,2.77l0.109,0.001c0.001,0,0.001,0,0.001,0
			c4.47,0,9.198-1.826,14.062-5.429l-0.679-0.448C264.986,157.401,261.821,155.643,258.318,154.029z"/>
	</g>
	<path style="fill:#1D1E1C;" d="M236.231,156.471c-4.23-0.199-9.014,0.109-13.246,0.025c-0.635-0.014-0.23,1.014,0.414,1.025
		c4.23,0.086,8.457-0.26,12.688-0.063C236.723,157.49,236.876,156.5,236.231,156.471z"/>
	<path style="fill:#1D1E1C;" d="M274.081,186.184c-0.298-3.137-1.006-6.976-1.799-9.945c-0.166-0.624-1.098-0.256-0.934,0.359
		c0.756,2.832,1.355,5.621,1.649,8.631C273.333,185.246,273.744,186.18,274.081,186.184z"/>
	<path style="fill:#1D1E1C;" d="M169.413,157.689c-0.274-0.489-0.226-0.795-0.166-0.981c2.63-8.202,27.165-10.423,39.406-10.692
		c0.009-0.665,0.015-1.33,0.02-1.995c-9.218,0.213-38.009,1.719-41.33,12.076c-0.266,0.828-0.153,1.717,0.326,2.57
		c2.949,5.262,21.151,10.366,31.739,12.941l0.361,0.088l0.551-1.922c-0.036-0.011-0.188-0.048-0.439-0.109
		C182.917,165.539,171.242,160.95,169.413,157.689z"/>
	<path style="fill:#1D1E1C;" d="M290.251,200.645c-0.172-0.053-0.346-0.105-0.522-0.141c-0.029-0.002-0.07-0.004-0.139-0.01
		c-0.061-0.006-0.108-0.021-0.166-0.029c1.361,6.641,1.436,11.175,0.542,11.919c-1.743,1.449-4.132,3.434-41.198-12.304
		l-0.781,1.842c24.536,10.417,34.353,13.384,39.088,13.384c2.122,0,3.224-0.597,4.171-1.385c2.015-1.677,1.333-7.816,0.311-13.016
		C291.114,200.857,290.676,200.777,290.251,200.645z"/>
	<g>
		<path style="fill:#F9D8B7;" d="M344.713,121.829c1.035-5.56-1.727-12.442-4.191-17.271c-2.785-5.46-7.322-9.188-12.604-12.087
			c-8.209-4.506-18.488-7.199-27.684-8.891c-8.592-1.58-17.738-1.44-25.181,1.543c-22.107-0.926-40.483,20.416-38.651,42.193
			c2.078,24.706,29.518,38.006,51.513,37.879c9.607-0.056,18.889-2.9,27.142-7.609c0.225,0.238,0.466,0.463,0.724,0.676
			c0.912,1.416,2.314,2.394,3.878,3.048c2.496,1.962,6.541,2.074,9.619,0.635c2.355-0.583,4.508-1.724,5.508-3.536
			c0.417-0.459,0.784-0.96,1.038-1.539c1.212-2.766,0.582-5.482-1.368-7.451c-0.803-1.021-1.881-1.898-3.137-2.594
			c-0.432-0.239-0.904-0.453-1.401-0.646C336.834,139.393,343.039,130.822,344.713,121.829z"/>
		<path d="M287.603,165.696c-11.638,0-23.784-3.572-33.326-9.801c-7.71-5.033-17.156-14.069-18.373-28.537
			c-0.911-10.829,3.029-21.894,10.811-30.357c7.249-7.885,17.073-12.407,26.951-12.407c0.432,0,0.866,0.009,1.301,0.025
			c4.245-1.684,9.186-2.538,14.689-2.538c3.445,0,7.035,0.339,10.668,1.007c11.516,2.118,20.881,5.127,27.834,8.944
			c6.192,3.398,10.262,7.306,12.808,12.298c3.653,7.156,5.079,13.074,4.238,17.59c-1.817,9.764-8.718,18.401-14.404,24.086
			c0.271,0.122,0.525,0.25,0.76,0.38c1.349,0.747,2.455,1.662,3.288,2.722c2.124,2.139,2.673,5.131,1.433,7.961
			c-0.242,0.552-0.598,1.086-1.087,1.632c-0.975,1.721-3.031,3.044-5.796,3.729c-1.336,0.635-2.952,0.988-4.58,0.988
			c-2.092,0-4.011-0.594-5.414-1.674c-1.775-0.753-3.12-1.811-4.001-3.146c-0.149-0.126-0.293-0.255-0.432-0.389
			c-8.615,4.847-17.96,7.434-27.053,7.486L287.603,165.696z M273.667,85.594c-9.599,0-19.154,4.405-26.214,12.084
			c-7.593,8.259-11.439,19.046-10.551,29.597c1.184,14.066,10.4,22.873,17.923,27.783c9.383,6.125,21.331,9.639,32.779,9.639
			l0.31-0.001c9.039-0.053,18.339-2.661,26.897-7.544l0.341-0.195l0.27,0.287c0.21,0.223,0.436,0.434,0.678,0.633l0.102,0.114
			c0.778,1.209,2.006,2.17,3.65,2.857l0.116,0.068c1.232,0.969,2.954,1.502,4.85,1.502c1.483,0,2.952-0.32,4.248-0.927
			c2.611-0.656,4.455-1.825,5.282-3.325l0.068-0.095c0.441-0.485,0.744-0.932,0.95-1.403c1.085-2.477,0.624-4.991-1.266-6.898
			c-0.788-0.997-1.792-1.826-3.023-2.508c-0.39-0.216-0.84-0.424-1.34-0.617l-0.723-0.279l0.554-0.543
			c5.677-5.57,12.828-14.269,14.654-24.084c0.789-4.233-0.645-10.096-4.145-16.953c-2.451-4.805-6.391-8.579-12.399-11.876
			c-6.859-3.765-16.123-6.738-27.533-8.837c-3.574-0.657-7.103-0.991-10.488-0.991c-5.418,0-10.269,0.843-14.416,2.506l-0.1,0.04
			l-0.107-0.004C274.576,85.604,274.12,85.594,273.667,85.594z"/>
	</g>
	<path style="fill:#F9D8B7;" d="M340.522,104.558c-2.785-5.46-7.322-9.188-12.604-12.087c-8.209-4.506-18.488-7.199-27.684-8.891
		c-8.592-1.58-17.738-1.44-25.181,1.543c-4.965-0.208-9.738,0.715-14.14,2.506c1.651-0.087,3.313-0.083,4.984,0.024
		c0.473,0.03,0.878,0.674,0.43,1.037c-1.448,1.174-3.261,1.992-4.526,3.365c7.076,1.591,13.719,4.966,20.633,7.129
		c3.822,1.196,7.634,2.137,11.631,2.508c3.047,0.282,6.068,0.533,8.994,1.482c0.527,0.171,0.572,0.805,0.146,1.11
		c-1.538,1.101-3.22,1.906-4.827,2.89c-2.283,1.396-0.368,1.938,1.375,2.531c2.57,0.873,5.217,1.408,7.829,2.125
		c5.983,1.643,12.413,1.674,18.123,4.238c0.279,0.125,0.401,0.585,0.218,0.831c-2.591,3.483-6.539,5.489-9.408,8.677
		c4.387,0.86,8.79-1.316,13.211-0.235c0.344,0.084,0.48,0.429,0.425,0.747c-1.602,9.084-9.282,16.486-16.202,21.963
		c-7.879,6.235-16.483,11.025-26.516,12.666c-9.725,1.59-19.546,1.5-28.5-3.066c-5.01-2.555-9.407-5.967-13.41-9.824
		c10.346,11.453,27.596,17.453,42.393,17.368c9.607-0.056,18.889-2.9,27.142-7.609c0.225,0.238,0.466,0.463,0.724,0.676
		c0.458,0.711,1.039,1.311,1.703,1.815c-0.057-0.611,0.219-1.256,0.984-1.912c1.059-0.906,2.086-1.364,3.436-1.74
		c1.921-0.535,3.898,0.83,5.832,0.167c4.502-1.542,4.625-5.479,4.018-9.502c-0.145-0.089-0.284-0.183-0.435-0.266
		c-0.432-0.239-0.904-0.453-1.401-0.646c6.917-6.786,13.122-15.356,14.796-24.35C345.749,116.27,342.987,109.387,340.522,104.558z"
		/>
	<g>
		<path style="fill:#EAA42C;" d="M374.282,118.484c-3.473-4.275-8.604-7.537-14.096-8.481c0.145-0.614,0.254-1.245,0.33-1.886
			c0.583-4.874,0.065-10.649-1.547-15.27c-0.178-0.508-0.855-0.351-0.961,0.107c-0.506,2.173-1.791,4.047-3.373,5.65
			c-0.298-1.853-1.026-3.711-1.99-5.43c-3.403-6.063-8.813-10.936-14.288-15.102c-6.909-5.257-15.021-8.425-23.302-10.814
			c-8.363-2.412-17.398-4.815-26.149-4.689c-0.383,0.006-0.56,0.51-0.349,0.79c1.071,1.434,2.099,2.863,2.93,4.423
			c-3.084-1.167-6.549-1.365-10.014-1.275c-7.815,0.202-15.552,1.243-22.691,4.595c-0.359,0.168-0.471,0.776-0.018,0.926
			c1.78,0.59,3.52,1.176,5.165,1.975c-2.216,0.938-4.185,2.383-5.525,4.42c-0.229,0.348-0.019,0.866,0.446,0.81
			c0.557-0.067,1.112-0.142,1.668-0.216c-1.07,0.746-2.068,1.593-2.948,2.574c-0.242,0.27-0.054,0.783,0.318,0.807
			c0.205,0.014,0.413,0.041,0.618,0.057c-0.871,0.363-1.724,0.786-2.547,1.293c-0.395,0.242-0.182,0.828,0.221,0.898
			c4.672,0.822,9.364,0.852,13.938,2.247c2.134,0.651,4.182,1.546,6.136,2.618c-1.816,0.213-3.635,0.418-5.433,0.769
			c-0.374,0.073-0.665,0.633-0.257,0.888c7.578,4.73,16.537,6.182,25.131,8.02c4.869,1.041,9.734,1.928,14.675,2.552
			c2.12,0.268,4.244,0.446,6.353,0.411c-3.31,1.266-6.877,2.096-10.026,3.41c-0.48,0.2-0.377,0.857,0.107,0.961
			c5.367,1.161,10.409,3.063,15.886,3.883c2.892,0.434,5.81,0.678,8.733,0.777c-2.524,3.137-4.73,6.567-5.881,10.398
			c-0.101,0.332,0.107,0.762,0.515,0.694c2.491-0.417,4.909-1.729,7.317-2.509c2.217-0.719,4.469-1.273,6.742-1.472
			c0.236-0.021,0.216,4.479-1.889,8.673c-3.111,6.2-7.02,11.721-11.949,16.449c-1.651,1.584-3.458,3.019-5.361,4.289
			c-0.35,0.233,0.19,0.693,0.515,0.694c3.188,0.011,6.924-1.327,9.777,0.624c2.579,1.764,2.709,6.67,1.152,9.088
			c-0.392,0.609-0.95,1.075-1.604,1.428c-1.304,0.979-3.481,1.521-4.92,1.646c-3.153,0.278-7.577-1.41-9.308-4.423
			c-0.355,0.164-0.714,0.319-1.075,0.466c-4.006,2.931-9.991,4.787-13.474,5.91c12.98,10.62,31.313,8.212,44.75-0.549
			c7.243-4.723,13.256-11.889,15.537-20.332c0.526-1.947,0.857-4.021,0.985-6.141c1.243,1.586,2.179,3.496,3.218,5.203
			c0.16,0.266,0.621,0.277,0.795,0.02c3.008-4.477,2.084-11.997-0.099-16.639c-1.137-2.418-2.877-4.538-4.946-6.326
			c4.041-0.461,8.48,0.17,11.582,0.896C374.225,119.371,374.545,118.807,374.282,118.484z"/>
		<path d="M322.407,170.674c-7.853,0-15.024-2.472-20.74-7.148l-0.711-0.581l1.306-0.421c3.411-1.098,9.12-2.934,12.899-5.698
			l0.107-0.061c0.354-0.144,0.706-0.296,1.054-0.456l0.415-0.191l0.228,0.396c1.692,2.946,5.96,4.426,8.83,4.174
			c1.417-0.123,3.48-0.66,4.663-1.549c0.683-0.375,1.161-0.798,1.483-1.299c1.473-2.288,1.241-6.861-1.014-8.404
			c-0.972-0.664-2.147-0.974-3.698-0.974c-0.942,0-1.932,0.111-2.889,0.219c-0.952,0.107-1.936,0.219-2.869,0.219
			c-0.497-0.002-1.008-0.371-1.134-0.79c-0.096-0.317,0.021-0.632,0.303-0.82c1.918-1.28,3.698-2.704,5.293-4.234
			c4.752-4.558,8.628-9.894,11.849-16.313c1.667-3.321,1.959-6.799,1.933-7.909c-1.843,0.199-3.883,0.661-6.186,1.408
			c-0.86,0.278-1.746,0.636-2.603,0.982c-1.547,0.625-3.147,1.27-4.786,1.545l-0.166,0.014c-0.296,0-0.568-0.138-0.747-0.378
			c-0.2-0.27-0.262-0.641-0.163-0.968c0.958-3.191,2.669-6.323,5.358-9.793c-2.716-0.124-5.337-0.373-7.807-0.743
			c-3.269-0.49-6.425-1.372-9.477-2.226c-2.095-0.586-4.262-1.192-6.441-1.663c-0.442-0.095-0.768-0.459-0.81-0.906
			c-0.04-0.438,0.201-0.832,0.616-1.005c1.733-0.724,3.619-1.311,5.442-1.878c0.664-0.207,1.338-0.417,2.011-0.635
			c-1.116-0.066-2.314-0.182-3.651-0.351c-4.519-0.571-9.333-1.408-14.717-2.559c-0.986-0.211-1.977-0.416-2.969-0.623
			c-7.639-1.586-15.538-3.227-22.322-7.461c-0.327-0.204-0.486-0.563-0.417-0.937c0.078-0.421,0.432-0.786,0.843-0.866
			c1.278-0.249,2.576-0.427,3.857-0.583c-1.534-0.752-3.079-1.368-4.609-1.835c-2.857-0.872-5.839-1.211-8.723-1.539
			c-1.688-0.192-3.433-0.391-5.156-0.694c-0.413-0.072-0.745-0.407-0.826-0.833c-0.076-0.397,0.089-0.775,0.43-0.984
			c0.469-0.289,0.955-0.556,1.469-0.809c-0.05-0.068-0.093-0.144-0.126-0.226c-0.148-0.362-0.087-0.757,0.158-1.03
			c0.478-0.533,0.996-1.037,1.564-1.521c-0.352-0.006-0.659-0.194-0.827-0.503c-0.181-0.336-0.161-0.762,0.051-1.085
			c1.135-1.724,2.729-3.114,4.749-4.142c-1.26-0.541-2.589-0.994-4.128-1.504c-0.371-0.122-0.616-0.439-0.639-0.826
			c-0.025-0.428,0.222-0.85,0.602-1.028c6.229-2.923,13.502-4.398,22.891-4.642c0.47-0.012,0.94-0.019,1.41-0.019
			c2.991,0,5.423,0.29,7.53,0.905c-0.703-1.15-1.487-2.221-2.244-3.234c-0.219-0.291-0.251-0.705-0.082-1.052
			c0.162-0.331,0.47-0.532,0.823-0.537l0.671-0.005c8.568,0,17.357,2.328,25.625,4.713c6.324,1.825,15.636,4.94,23.466,10.897
			c4.761,3.622,10.703,8.63,14.421,15.255c0.877,1.565,1.499,3.114,1.854,4.62c1.345-1.528,2.214-3.109,2.586-4.71
			c0.108-0.468,0.538-0.809,1.023-0.809c0.413,0,0.757,0.249,0.897,0.65c1.597,4.577,2.184,10.369,1.571,15.494
			c-0.058,0.485-0.134,0.964-0.228,1.428c5.256,1.041,10.292,4.141,13.885,8.564c0.232,0.285,0.273,0.682,0.106,1.036
			c-0.169,0.357-0.503,0.579-0.873,0.579l0,0l-0.213-0.025c-1.657-0.388-4.974-1.04-8.554-1.04c-0.592,0-1.171,0.019-1.73,0.054
			c1.837,1.748,3.253,3.667,4.216,5.716c2.309,4.912,3.116,12.584,0.061,17.13c-0.354,0.525-1.314,0.499-1.638-0.04
			c-0.321-0.528-0.634-1.078-0.949-1.631c-0.463-0.813-0.937-1.645-1.453-2.428c-0.171,1.681-0.47,3.314-0.89,4.869
			c-2.158,7.987-7.897,15.502-15.747,20.621C339.425,167.951,330.688,170.674,322.407,170.674z M303.026,163.328
			c5.412,4.155,12.091,6.346,19.38,6.346c8.09,0,16.632-2.664,24.053-7.503c7.646-4.985,13.233-12.291,15.327-20.044
			c0.517-1.91,0.842-3.942,0.969-6.04l0.08-1.315l0.813,1.037c0.883,1.126,1.611,2.406,2.316,3.644
			c0.31,0.545,0.618,1.086,0.935,1.608c2.802-4.24,2.009-11.484-0.184-16.146c-1.048-2.229-2.67-4.302-4.82-6.161l-0.863-0.746
			l1.133-0.129c0.932-0.106,1.931-0.161,2.969-0.161c3.681,0,7.083,0.668,8.784,1.067c-3.585-4.367-8.612-7.394-13.818-8.289
			l-0.523-0.09l0.122-0.517c0.138-0.586,0.246-1.202,0.32-1.831c0.596-4.981,0.027-10.605-1.522-15.046
			c-0.474,2.085-1.653,4.066-3.506,5.944l-0.693,0.703l-0.157-0.974c-0.272-1.691-0.922-3.463-1.933-5.265
			c-3.628-6.464-9.471-11.384-14.155-14.948c-5.858-4.457-13.211-7.867-23.138-10.732c-8.199-2.365-16.91-4.674-25.348-4.674
			l-0.656,0.005c1.021,1.298,2.137,2.831,3.015,4.477l0.625,1.173l-1.243-0.47c-2.275-0.861-4.957-1.262-8.439-1.262
			c-0.461,0-0.922,0.007-1.384,0.019c-9.246,0.239-16.393,1.684-22.492,4.547c1.903,0.653,3.543,1.216,5.153,1.998l0.991,0.481
			l-1.015,0.429c-2.314,0.979-4.098,2.403-5.303,4.234c0.523-0.029,1.077-0.103,1.63-0.177l2.043-0.273l-1.69,1.179
			c-1.117,0.779-2.053,1.596-2.862,2.498c0.096-0.018,0.213-0.006,0.331,0.005l2.349,0.184l-1.922,0.802
			c-0.907,0.378-1.718,0.79-2.477,1.257c1.738,0.278,3.468,0.475,5.142,0.666c2.928,0.333,5.956,0.677,8.901,1.576
			c2.073,0.633,4.169,1.527,6.23,2.658l1.372,0.753l-1.836,0.215c-1.685,0.197-3.427,0.401-5.113,0.73
			c-0.008,0.007-0.016,0.012-0.022,0.014c6.62,4.11,14.403,5.727,21.931,7.29c0.995,0.206,1.987,0.413,2.975,0.624
			c5.356,1.145,10.143,1.977,14.633,2.545c2.225,0.281,4.055,0.412,5.757,0.412l3.365-0.052l-2.652,1.014
			c-1.525,0.583-3.118,1.079-4.658,1.559c-1.802,0.561-3.664,1.141-5.355,1.846c2.229,0.488,4.41,1.099,6.519,1.688
			c3.023,0.845,6.148,1.719,9.356,2.2c2.728,0.409,5.648,0.669,8.676,0.772l0.999,0.034l-0.627,0.779
			c-2.96,3.678-4.801,6.929-5.792,10.229c1.484-0.199,3.032-0.824,4.53-1.428c0.873-0.353,1.776-0.717,2.669-1.006
			c2.545-0.825,4.787-1.314,6.853-1.494l0.307-0.027l0.189,0.283c0.37,0.6,0.12,5.125-1.894,9.139
			c-3.273,6.522-7.214,11.948-12.05,16.586c-1.546,1.482-3.261,2.868-5.102,4.123c0.875-0.006,1.765-0.106,2.705-0.212
			c0.985-0.111,2.003-0.226,3.001-0.226c1.762,0,3.117,0.365,4.263,1.148c2.786,1.905,3.042,7.051,1.291,9.771
			c-0.415,0.644-1.016,1.182-1.787,1.597c-1.285,0.972-3.508,1.565-5.114,1.705c-3.037,0.267-7.508-1.237-9.545-4.285
			c-0.211,0.093-0.423,0.183-0.637,0.27C311.96,160.386,306.515,162.203,303.026,163.328z"/>
	</g>
	<path style="fill:#EAA42C;" d="M348.089,161.456c-3.271,1.834-7.086,3.65-10.93,3.426c-1.649-0.096-3.186-1.451-2.496-3.219
		c1.41-3.611,8.014-7.848,3.611-11.937c-1.555-1.442-5.449-2.118-5.67-4.677c-0.559-6.48,4.439-12.021,7.04-17.525
		c1.794-3.795,3.973-8.457,3.98-12.723c0.001-0.744,0.244-1.006-0.534-0.947c-1.286,0.096-2.548,0.322-3.806,0.604
		c-1.871,0.419-3.633,0.751-5.553,0.7c-0.547-0.014-0.781-0.643-0.43-1.037c0.924-1.034,2.022-1.917,2.91-2.98
		c2.402-2.873-4.165-3.249-5.666-3.436c-3.474-0.434-6.925-0.839-10.227-2.068c-0.413-0.154-0.617-0.674-0.268-1.016
		c0.816-0.8,5.229-3.608,2.748-4.796c-2.066-0.989-4.304-1.4-6.568-1.636c-3.506-0.365-6.984-0.748-10.477-1.23
		c-8.049-1.112-16.151-2.29-23.58-5.759c-0.344-0.16-0.4-0.71-0.123-0.954c0.854-0.748,4.533-2.2,2.094-3.461
		c-1.754-0.906-3.683-1.418-5.586-1.906c-4.215-1.08-8.541-1.426-12.74-2.492c-0.553-0.141-0.545-0.818-0.145-1.11
		c1.793-1.312,3.986-1.659,5.939-2.608c-2.144-0.943-4.869-0.467-7.133-0.76c-0.62-0.08-0.803-0.75-0.307-1.132
		c2.179-1.679,5.181-2.059,7.211-3.888c-3.621-2.24-8.235-2.012-12.518-1.823c-0.028,0.013-0.059,0.023-0.087,0.037
		c-0.359,0.168-0.471,0.776-0.018,0.926c1.78,0.59,3.52,1.176,5.165,1.975c-2.216,0.938-4.185,2.383-5.525,4.42
		c-0.229,0.348-0.019,0.866,0.446,0.81c0.557-0.067,1.112-0.142,1.668-0.216c-1.07,0.746-2.068,1.593-2.948,2.574
		c-0.242,0.27-0.054,0.783,0.318,0.807c0.205,0.014,0.413,0.041,0.618,0.057c-0.871,0.363-1.724,0.786-2.547,1.293
		c-0.395,0.242-0.182,0.828,0.221,0.898c4.672,0.822,9.364,0.852,13.938,2.247c2.134,0.651,4.182,1.546,6.136,2.618
		c-1.816,0.213-3.635,0.418-5.433,0.769c-0.374,0.073-0.665,0.633-0.257,0.888c7.578,4.73,16.537,6.182,25.131,8.02
		c4.869,1.041,9.734,1.928,14.675,2.552c2.12,0.268,4.244,0.446,6.353,0.411c-3.31,1.266-6.877,2.096-10.026,3.41
		c-0.48,0.2-0.377,0.857,0.107,0.961c5.367,1.161,10.409,3.063,15.886,3.883c2.892,0.434,5.81,0.678,8.733,0.777
		c-2.524,3.137-4.73,6.567-5.881,10.398c-0.101,0.332,0.107,0.762,0.515,0.694c2.491-0.417,4.909-1.729,7.317-2.509
		c2.217-0.719,4.469-1.273,6.742-1.472c0.236-0.021,0.216,4.479-1.889,8.673c-3.111,6.2-7.02,11.721-11.949,16.449
		c-1.651,1.584-3.458,3.019-5.361,4.289c-0.35,0.233,0.19,0.693,0.515,0.694c3.406,0.012,7.475-1.494,10.359,1.15
		c2.992,2.744,1.869,7.811-1.033,9.989c-1.304,0.979-3.481,1.521-4.92,1.646c-3.153,0.278-7.577-1.41-9.308-4.423
		c-0.355,0.164-0.714,0.319-1.075,0.466c-4.006,2.931-9.991,4.787-13.474,5.91c12.98,10.62,31.313,8.212,44.75-0.549
		c0.931-0.606,1.839-1.255,2.724-1.938C349,160.931,348.544,161.201,348.089,161.456z"/>
	<path style="fill:#1D1E1C;" d="M269.76,105.373c-2.299,1.191-5.217,1.875-7.748,1.082c-4.204-1.318-1.852-7.467,1.546-8.181
		c0.626-0.132,0.521-1.126-0.111-0.994c-3.542,0.744-6.183,5.764-3.774,8.793c2.341,2.944,7.656,1.679,10.447,0.233
		C270.687,106.013,270.332,105.077,269.76,105.373z"/>
	<path style="fill:#1D1E1C;" d="M300.862,118.34c-1.703,1.674-5.225,1.703-7.363,0.971c-2.834-0.971-2.939-4.502-1.23-6.471
		c0.423-0.488-0.359-1.11-0.781-0.625c-1.936,2.233-1.936,6.002,0.848,7.617c2.59,1.506,7.126,1.277,9.309-0.867
		C302.102,118.514,301.316,117.895,300.862,118.34z"/>
	<path style="fill:#1D1E1C;" d="M299.159,128.277c-2.334-1.008-5.201-0.734-7.406,0.471c-0.566,0.31,0.029,1.115,0.586,0.811
		c1.891-1.033,4.44-1.221,6.426-0.363C299.356,129.451,299.751,128.533,299.159,128.277z"/>
	<path style="fill:#1D1E1C;" d="M300.618,131.158c-1.871-0.162-3.73,0.023-5.365,1.008c-0.555,0.333,0.039,1.139,0.586,0.809
		c1.397-0.84,3.044-0.965,4.635-0.826C301.112,132.203,301.262,131.215,300.618,131.158z"/>
	<path style="fill:#1D1E1C;" d="M291.073,141.286c-1.131-4.804-7.819-5.331-11.721-5.582c-6.636-0.428-13.496,0.852-19.935-1.27
		c-6.112-2.016-11.022-7.219-10.171-13.96c0.082-0.639-0.908-0.786-0.988-0.145c-0.411,3.25,0.383,6.081,1.936,8.437
		c-3.379,1.891-3.951,6.408-3.951,9.953c0,4.818,2.602,8.898,6.436,11.617c9.234,6.545,22.965,7.818,32.836,2.023
		C289.405,150.078,292.161,145.912,291.073,141.286z"/>
	<path style="fill:#D92332;" d="M289.866,146.063c-1.463,5.002-7.891,7.309-12.424,8.32c-5.77,1.287-11.874,0.596-17.396-1.384
		c-4.791-1.718-9.693-4.591-11.807-9.418c-1.672-3.819-1.797-11.752,2.534-13.993c2.534,3.285,6.608,5.523,10.888,6.501
		c5.395,1.233,11.203,0.406,16.679,0.565c2.938,0.086,6.012,0.416,8.735,1.576C290.32,139.613,290.76,143.004,289.866,146.063z"/>
	<g>
		<path style="fill:#F9D8B7;" d="M252.089,187.123c-1.063-0.762-2.456,0.939-2.989,1.631c-0.982,1.272-1.458,2.875-1.913,4.449
			c-0.339-1.055-0.751-2.092-1.155-3.075c-0.623-1.518-1.779-4.477-3.683-4.807c-3.943-0.681-1.488,6.017-0.246,9.177
			c-1.067-0.391-2.154-0.72-3.172-1.029c-1.739-0.529-5.073-1.668-6.782-0.42c-1.758,1.283-0.426,3.35,0.999,4.221
			c1.485,0.906,3.194,1.275,4.921,1.574c-1.133,0.386-2.252,0.807-3.286,1.41c-0.991,0.578-3.273,2.201-2.511,3.702
			c0.684,1.342,2.369,1.183,3.661,1.066c1.534-0.14,2.959-0.553,4.345-1.088c-1.726,2.725-3.954,6.689-0.615,7.274
			c1.907,0.333,4.168-1.771,5.199-3.11c0.727-0.941,1.223-2.038,1.608-3.19c0.642-0.454,1.348-0.858,2.167-1.277
			c0.917-0.47,1.82-1.427,2.238-2.356c0.635-1.41,0.626-2.512,0.308-4.017c-0.128-0.605-0.097-1.181-0.026-1.749
			c0.541-1.208,1.038-2.435,1.36-3.713C252.845,190.49,253.435,188.087,252.089,187.123z"/>
		<path d="M240.078,211.743L240.078,211.743c-0.169,0-0.336-0.014-0.501-0.043c-0.976-0.171-1.629-0.616-1.942-1.324
			c-0.613-1.387,0.29-3.469,1.483-5.505c-1.105,0.347-2.126,0.556-3.14,0.648c-0.42,0.038-0.858,0.077-1.294,0.077
			c-0.528,0-2.137,0-2.857-1.414c-0.804-1.583,0.87-3.291,2.704-4.36c0.553-0.323,1.128-0.595,1.706-0.833
			c-1.136-0.268-2.3-0.653-3.349-1.293c-0.997-0.609-2.024-1.786-2.076-3.045c-0.022-0.552,0.14-1.348,1.043-2.007
			c0.6-0.438,1.407-0.659,2.399-0.659c1.562,0,3.331,0.546,4.503,0.906l0.32,0.099c0.736,0.224,1.457,0.443,2.172,0.682
			c-1.164-3.1-2.155-6.533-1.097-8.085c0.304-0.445,0.972-0.98,2.282-0.759c2.118,0.367,3.297,3.247,4.002,4.968l0.058,0.143
			c0.219,0.531,0.443,1.086,0.658,1.656c0.361-1.095,0.824-2.203,1.552-3.146c1.447-1.874,2.719-2.417,3.677-1.731
			c1.634,1.171,0.95,3.893,0.621,5.2c-0.345,1.369-0.877,2.648-1.358,3.726c-0.053,0.45-0.085,0.975,0.028,1.511
			c0.317,1.499,0.371,2.745-0.341,4.325c-0.466,1.036-1.457,2.079-2.466,2.597c-0.814,0.416-1.431,0.774-1.975,1.148
			c-0.452,1.311-0.973,2.324-1.633,3.18C244.302,209.643,242.136,211.743,240.078,211.743z M241.511,202.922l-0.811,1.279
			c-0.757,1.196-2.769,4.372-2.151,5.77c0.172,0.39,0.564,0.633,1.2,0.744c1.52,0.259,3.539-1.394,4.717-2.923
			c0.616-0.799,1.102-1.766,1.53-3.045l0.052-0.154l0.133-0.095c0.617-0.436,1.304-0.842,2.229-1.314
			c0.81-0.414,1.636-1.285,2.01-2.116c0.605-1.346,0.563-2.341,0.274-3.708c-0.15-0.71-0.101-1.366-0.033-1.914l0.04-0.143
			c0.472-1.053,0.998-2.307,1.332-3.631c0.275-1.094,0.847-3.369-0.234-4.144c-0.094-0.067-0.188-0.099-0.296-0.099
			c-0.28,0-0.913,0.212-2.006,1.629c-0.944,1.223-1.414,2.849-1.829,4.282l-0.455,1.574l-0.501-1.56
			c-0.337-1.051-0.748-2.081-1.142-3.038l-0.059-0.143c-0.585-1.429-1.674-4.089-3.247-4.36c-0.782-0.135-1.147,0.134-1.286,0.336
			c-0.681,1-0.146,3.747,1.59,8.165l0.407,1.034l-1.044-0.382c-1.03-0.377-2.07-0.693-3.076-1l-0.394-0.12
			c-1.114-0.344-2.797-0.862-4.208-0.862c-0.776,0-1.385,0.157-1.81,0.467c-0.445,0.325-0.651,0.704-0.633,1.158
			c0.035,0.846,0.83,1.763,1.598,2.232c1.45,0.885,3.14,1.23,4.746,1.508l1.931,0.335l-1.855,0.632
			c-1.06,0.36-2.181,0.776-3.195,1.368c-1.107,0.645-2.84,2.014-2.317,3.044c0.305,0.6,0.912,0.867,1.966,0.867
			c0.405,0,0.813-0.038,1.187-0.071c1.333-0.122,2.671-0.457,4.227-1.059L241.511,202.922z"/>
	</g>
	<g>
		<path style="fill:#F9D8B7;" d="M191.675,183.143c1.051,0.777,2.472-0.9,3.016-1.582c1.002-1.259,1.503-2.854,1.982-4.42
			c0.322,1.061,0.718,2.104,1.106,3.094c0.6,1.526,1.709,4.504,3.607,4.863c3.932,0.744,1.583-5.992,0.392-9.172
			c1.061,0.408,2.143,0.754,3.154,1.08c1.73,0.557,5.047,1.748,6.775,0.526c1.777-1.255,0.479-3.343-0.932-4.235
			c-1.471-0.93-3.174-1.326-4.896-1.652c1.138-0.367,2.264-0.771,3.308-1.357c1-0.563,3.307-2.148,2.568-3.662
			c-0.662-1.354-2.35-1.221-3.644-1.123c-1.536,0.115-2.968,0.506-4.361,1.019c1.769-2.696,4.059-6.627,0.729-7.263
			c-1.901-0.365-4.195,1.705-5.248,3.026c-0.74,0.931-1.254,2.019-1.656,3.165c-0.65,0.445-1.361,0.838-2.188,1.243
			c-0.924,0.454-1.842,1.397-2.274,2.321c-0.658,1.4-0.666,2.501-0.371,4.011c0.118,0.606,0.077,1.183-0.001,1.749
			c-0.562,1.199-1.077,2.418-1.42,3.691C190.973,179.764,190.345,182.158,191.675,183.143z"/>
		<path d="M201.947,185.654c-0.199,0-0.417-0.02-0.653-0.065c-2.11-0.399-3.244-3.295-3.921-5.024l-0.058-0.147
			c-0.21-0.536-0.426-1.094-0.631-1.667c-0.378,1.088-0.858,2.189-1.601,3.122c-1.059,1.327-1.977,1.972-2.805,1.972c0,0,0,0,0,0
			c-0.328,0-0.63-0.101-0.898-0.299c-1.616-1.196-0.889-3.907-0.539-5.21c0.37-1.373,0.921-2.64,1.417-3.704
			c0.06-0.451,0.1-0.977-0.004-1.511c-0.294-1.504-0.328-2.751,0.409-4.319c0.482-1.029,1.49-2.057,2.506-2.557
			c0.818-0.401,1.44-0.75,1.993-1.117c0.465-1.285,1.016-2.317,1.681-3.154c1.052-1.32,3.56-3.626,5.733-3.206
			c0.972,0.186,1.618,0.641,1.92,1.354c0.592,1.396-0.344,3.465-1.569,5.481c1.11-0.328,2.134-0.521,3.149-0.598
			c0.382-0.029,0.779-0.059,1.175-0.059c0.554,0,2.241,0,2.955,1.46c0.777,1.594-0.922,3.275-2.772,4.317
			c-0.559,0.314-1.138,0.576-1.718,0.806c1.131,0.286,2.289,0.689,3.328,1.346c0.986,0.624,1.995,1.817,2.027,3.077
			c0.014,0.552-0.161,1.345-1.074,1.989c-0.585,0.414-1.36,0.623-2.305,0.623c-1.589,0-3.397-0.589-4.593-0.979l-0.45-0.146
			c-0.665-0.214-1.344-0.434-2.029-0.673c1.111,3.107,2.046,6.547,0.978,8.088C203.343,185.22,202.852,185.654,201.947,185.654z
			 M196.675,175.427l0.477,1.568c0.32,1.053,0.714,2.092,1.093,3.057l0.058,0.148c0.563,1.436,1.61,4.11,3.176,4.407
			c0.169,0.032,0.325,0.048,0.467,0.048c0.512,0,0.717-0.211,0.828-0.37c0.69-0.995,0.197-3.748-1.465-8.183l-0.39-1.042
			l1.038,0.399c1.002,0.386,2.016,0.713,2.997,1.028l0.454,0.147c1.136,0.37,2.853,0.929,4.283,0.929
			c0.734,0,1.315-0.148,1.728-0.44c0.45-0.317,0.663-0.693,0.651-1.147c-0.021-0.847-0.802-1.776-1.561-2.258
			c-1.437-0.907-3.12-1.279-4.721-1.583l-1.926-0.364l1.866-0.604c1.064-0.343,2.191-0.74,3.216-1.316
			c1.116-0.629,2.87-1.971,2.364-3.008c-0.304-0.621-0.938-0.898-2.057-0.898c-0.371,0-0.742,0.028-1.085,0.055
			c-1.333,0.1-2.676,0.414-4.241,0.99l-1.421,0.522l0.831-1.267c0.776-1.184,2.838-4.327,2.241-5.735
			c-0.166-0.392-0.555-0.642-1.188-0.762c-1.532-0.297-3.565,1.342-4.763,2.847c-0.63,0.792-1.131,1.752-1.576,3.02l-0.054,0.154
			l-0.135,0.092c-0.627,0.43-1.322,0.824-2.25,1.28c-0.815,0.4-1.655,1.257-2.042,2.084c-0.628,1.335-0.601,2.331-0.333,3.703
			c0.138,0.708,0.079,1.364,0.003,1.913l-0.042,0.144c-0.486,1.04-1.032,2.281-1.39,3.609c-0.292,1.089-0.9,3.355,0.168,4.146
			c0.095,0.07,0.192,0.104,0.304,0.104l0,0c0.281,0,0.916-0.207,2.024-1.595c0.963-1.211,1.458-2.828,1.895-4.255L196.675,175.427z"
			/>
	</g>
	<path style="fill:#08131E;" d="M225.516,37.742c-2.406,0.562-5.149,0.047-7.61-0.048c-2.268-0.088-4.544-0.019-6.815,0.022
		c3.593-6.664,9.688-11.533,13.818-17.856c0.469-0.719,0.031-1.695-0.893-1.619c-5.705,0.471-11.107,2.256-16.666,3.5
		c-1.246,0.279-1.037,2.269,0.221,1.988c4.835-1.082,9.568-2.576,14.471-3.254c-4.436,6.031-10.294,10.973-13.5,17.865
		c-0.346,0.741,0.318,1.393,1.029,1.389c3.449-0.022,6.883-0.076,10.332,0.021c1.947,0.056,3.911,0.427,5.836-0.021
		C226.979,39.441,226.772,37.449,225.516,37.742z"/>
	<path style="fill:#08131E;" d="M211.772,51.08c-4.826-0.912-9.507-2.421-14.333-3.334c-1.268-0.239-1.556,1.74-0.289,1.98
		c4.124,0.779,8.146,1.975,12.24,2.88c-4.698,3.8-9.554,7.401-14.017,11.487c-0.62,0.567-0.5,1.654,0.442,1.799
		c4.214,0.648,8.184,2.232,12.334,3.166c1.258,0.283,1.542-1.697,0.289-1.979c-3.483-0.784-6.83-2.017-10.308-2.779
		c4.549-3.983,9.428-7.562,14.084-11.422C212.895,52.315,212.663,51.248,211.772,51.08z"/>
	<path style="fill:#08131E;" d="M203.182,88.91c-4.672,0.864-9.301,1.947-14,2.666c-1.271,0.193-1.055,2.182,0.223,1.986
		c4-0.611,7.951-1.48,11.92-2.262c-3.973,6.268-10.344,10.661-14.313,16.979c-0.488,0.776-0.016,1.606,0.892,1.617
		c3.832,0.049,7.68,0.467,11.5,0c1.28-0.155,1.06-2.143-0.223-1.986c-3.168,0.386-6.361,0.165-9.546,0.051
		c4.47-6.226,10.968-10.779,14.577-17.663C204.552,89.65,203.897,88.777,203.182,88.91z"/>
	<path style="fill:#010202;" d="M330.622,152.726c-0.988-2.189-3.433-2.496-5.565-2.018c-2.741,0.613-4.793,3.125-5.468,5.738
		c-0.161,0.623,0.832,0.749,0.991,0.131c0.411-1.59,1.346-2.894,2.616-3.839c1.367,0.188,2.568,1.435,2.619,2.823
		c0.023,0.646,1.017,0.516,0.994-0.123c-0.054-1.449-1.118-2.816-2.459-3.412c0.041-0.02,0.078-0.045,0.119-0.064
		c1.662-0.811,4.371-0.752,5.225,1.139C329.96,153.686,330.888,153.313,330.622,152.726z"/>
</g>
</svg>
